<?xml version="1.0" encoding="UTF-8" standalone="no"?>
<!DOCTYPE svg PUBLIC "-//W3C//DTD SVG 1.1//EN" "http://www.w3.org/Graphics/SVG/1.1/DTD/svg11.dtd">

<!-- Created with Vectornator (http://vectornator.io/) -->
<svg height="100%" stroke-miterlimit="10" style="fill-rule:nonzero;clip-rule:evenodd;stroke-linecap:round;stroke-linejoin:round;" version="1.1" viewBox="0 0 2388 1668" width="100%" xml:space="preserve" xmlns="http://www.w3.org/2000/svg" xmlns:vectornator="http://vectornator.io" xmlns:xlink="http://www.w3.org/1999/xlink">
<metadata>
<vectornator:setting key="IsTimeLapseWatermarkDisabled" value="false"/>
<vectornator:setting key="UndoHistoryDisabled" value="true"/>
<vectornator:setting key="VNDimensionsVisible" value="true"/>
<vectornator:setting key="VNSnapToGuides" value="false"/>
<vectornator:setting key="WDCMYKEnabledKey" value="false"/>
<vectornator:setting key="WDDisplayWhiteBackground" value="true"/>
<vectornator:setting key="WDDynamicGuides" value="true"/>
<vectornator:setting key="WDGuidesVisible" value="true"/>
<vectornator:setting key="WDIsolateActiveLayer" value="false"/>
<vectornator:setting key="WDOutlineMode" value="false"/>
<vectornator:setting key="WDRulersVisible" value="true"/>
<vectornator:setting key="WDSnapToEdges" value="false"/>
<vectornator:setting key="WDSnapToGrid" value="false"/>
<vectornator:setting key="WDSnapToPoints" value="false"/>
<vectornator:setting key="WDUnits" value="Points"/>
</metadata>
<defs/>
<g id="planet" vectornator:layerName="planet">
<path d="M150 0L150 0C232.843 0 300 67.1573 300 150L300 150C300 232.843 232.843 300 150 300L150 300C67.1573 300 0 232.843 0 150L0 150C0 67.1573 67.1573 0 150 0Z" fill="#19b7ef" fill-rule="evenodd" opacity="1" stroke="none"/>
</g>
<g id="g" vectornator:layerName="g">
<path d="M618.781 22.8677C616.905 26.3204 613.687 27.1909 612.509 27.6816C610.882 28.3597 608.053 27.7384 606.272 27.7912C601.197 27.9415 597.727 33.9109 597.342 38.5066C596.735 45.7525 607.195 45.2736 611.576 46.9194C618.791 49.6298 616.844 57.8512 614.501 63.1858C611.657 69.6618 597.63 76.8247 591.48 80.4839C586.222 83.6122 578.91 93.5038 578.139 99.6756C577.918 101.442 579.335 102.541 579.25 104.192C579.166 105.826 574.049 111.339 575.172 112.47C577.707 115.024 581.735 111.234 583.939 110.18C588.7 107.904 592.975 103.383 597.705 101.54C600.113 100.601 602.876 100.446 605.276 99.5109C607.146 98.7823 610.909 95.3227 613.18 97.2843C615.604 99.3775 611.183 103.686 609.835 104.902C603.925 110.235 597.985 114.273 591.603 118.9C574.318 131.434 558.726 141.159 555.275 164.149C553.23 177.768 569.267 186.197 580.94 185.343C585.572 185.004 589.659 182.035 594.357 181.412C597.746 180.962 606.34 177.794 609.087 181.201C613.136 186.222 612.092 200.699 613.633 207.757C614.45 211.496 621.556 211.773 621.234 215.615C620.447 225.015 594.072 243.383 614.068 251.616C621.397 254.633 634.486 249.951 640.035 244.944C642.937 242.326 645.227 239.051 648.359 236.615C663.094 225.154 686.953 201.698 681.013 180.273C679.437 174.587 676.482 168.262 674.178 162.732C669.668 151.908 650.171 129.991 654.968 118.339C657.522 112.138 662.268 116.992 665.448 119.307C670.116 122.704 683.552 140.461 688.6 138.17C692.801 136.263 691.654 129.213 690.902 125.771C689.453 119.132 683.197 103.287 689.95 96.1756C698.25 87.4352 701.74 91.7973 705.467 89.3467C709.331 86.8059 711.411 81.5468 714.819 78.413C718.228 75.2789 724.252 73.2864 726.086 68.7653C727.81 64.5156 727.081 59.9417 729.648 55.8368C733.07 50.3642 745.3 44.7662 740.18 37.4089C724.151 14.3746 683.078 5.43806 657.273 13.0322C648.119 15.7261 637.693 11.9809 628.482 14.2421C621.302 16.0047 620.657 19.415 618.781 22.8677Z" fill="#c4e257" fill-rule="evenodd" opacity="1" stroke="none"/>
<path d="M580.787 45.6639C580.937 48.2718 584.449 53.8801 583.656 55.9692C581.006 62.9518 573.7 60.9598 577.107 71.2556C577.649 72.8926 579.294 73.7878 580.998 73.8828C588.645 74.309 596.716 64.4923 594.892 57.1276C593.853 52.9339 591.963 47.4869 588.241 45.4485C585.994 44.218 580.662 43.4977 580.787 45.6639Z" fill="#ffffff" fill-rule="evenodd" opacity="1" stroke="none"/>
<path d="M583.898 203.884C583.8 205.001 587.659 219.24 588.724 219.827C590.497 220.803 593.707 219.331 596.06 220.627C598.165 221.786 597.645 227.646 600.803 226.426C617.343 220.036 602.117 211.961 599.537 204.02C597.7 198.367 598.362 191.116 592.495 187.884C589.185 186.06 587.347 188.181 585.752 190.812C582.66 195.915 584.044 202.216 583.898 203.884Z" fill="#ffffff" fill-rule="evenodd" opacity="1" stroke="none"/>
<path d="M596.335 229.922C594.623 230.4 594.025 235.09 593.97 236.891C593.921 238.512 595.039 238.991 595.542 239.009C596.169 239.031 597.762 237.933 598.29 237.641C604.26 234.338 600.012 228.895 596.335 229.922Z" fill="#ffffff" fill-rule="evenodd" opacity="1" stroke="none"/>
<path d="M903.897 39.0227C902.948 35.3207 900.658 14.7601 904.051 12.7714C915.168 6.25708 924.7 17.9709 927.447 18.0246C938.841 18.2469 942.391 28.3881 941.998 31.1464C941.604 33.9047 937.869 39.6156 935.088 47.8866C932.308 56.1575 938.254 59.8843 934.904 67.3692C931.167 75.7182 923.928 79.5595 918.123 80.2231C912.832 80.8281 907.177 78.0764 906.614 74.3168C906.34 72.4835 905.64 67.3099 906.699 63.2679C907.686 59.4995 902.788 58.3436 900.375 53.3082C897.962 48.2728 905.045 43.5031 903.897 39.0227Z" fill="#c4e257" fill-rule="evenodd" opacity="1" stroke="none"/>
<path d="M889.178 20.9903C888.826 19.8392 881.293 24.3257 880.46 25.4208C878.982 27.3661 875.675 45.2655 876.618 47.1814C880.185 54.4323 891.014 48.5091 893.112 43.312C895.742 36.7974 887.744 37.2815 886.974 33.3681C886.032 28.575 890.518 25.3702 889.178 20.9903Z" fill="#b2ce4f" fill-rule="evenodd" opacity="1" stroke="none"/>
<path d="M897.582 94.2797C896.95 94.5365 896.517 94.9819 896.28 95.4279C895.641 96.6335 896.069 101.754 897.55 102.128C902.247 103.314 902.254 92.3821 897.582 94.2797Z" fill="#b2ce4f" fill-rule="evenodd" opacity="1" stroke="none"/>
<path d="M807.572 143.89C828.573 144.704 830.585 132.119 843.297 132.882C847.879 133.157 847.894 138.996 851.91 140.46C857.869 142.631 861.287 141.101 860.84 148.542C860.36 156.542 849.993 150.457 846.006 151.182C841.821 151.942 839.08 156.562 835.337 158.226C830.316 160.458 818.5 162.406 813.349 160.09C808.727 158.012 803.328 143.726 807.572 143.89Z" fill="#ffffff" fill-rule="evenodd" opacity="1" stroke="none"/>
<path d="M869.505 22.8531C872.115 25.8283 872.706 30.805 871.855 34.1452C870.708 38.6438 866.125 63.7851 868.387 66.6986C874.705 74.8349 892.089 59.4989 896.842 70.2786C898.24 73.4484 892.849 78.0882 891.459 80.5979C889.561 84.0267 890.124 95.8475 886.226 97.2197C878.673 99.8788 873.962 90.2113 867.392 102.076C863.729 108.693 864.522 118.692 866.948 125.585C868.861 131.018 873.375 137.759 869.988 143.876C868.735 146.139 864.822 141.535 864.113 140.623C860.93 136.523 857.435 131.431 854.845 126.889C853.788 125.037 853.256 120.943 851.68 119.579C849.475 117.671 845.516 121.014 843.829 122.047C839.502 124.698 835.138 130.242 829.821 130.331C827.113 130.377 822.603 129.21 819.923 129.188C814.56 129.143 811.504 127.909 805.492 125.367C800.952 123.446 800.614 120.549 797.716 119.29C795.043 118.129 787.573 123.674 781.264 122.902C778.503 122.565 776.134 118.776 774.162 117.128C770.169 113.791 763.07 110.765 757.998 110.145C752.511 109.473 738.935 109.726 739.671 101.195C740.369 93.1039 755.379 79.9085 760.367 73.5935C765.047 67.6686 768.02 60.2504 769.311 52.8635C769.928 49.3301 768.452 45.2364 771.194 42.382C778.05 35.2439 791.663 39.6392 800.141 35.7124C806.258 32.8795 809.295 25.8983 815.948 23.5307C829.286 18.7842 837.492 20.6094 851.192 21.0355C855.273 21.1624 863.477 15.9823 869.505 22.8531Z" fill="#c4e257" fill-rule="evenodd" opacity="1" stroke="none"/>
<path d="M883.918 285.695C887.01 283.901 892.873 283.379 895.194 282.119C897.855 280.673 898.838 276.825 901.854 276.104C910.205 274.107 918.02 270.171 926.431 268.159C929.064 267.53 932.653 266.863 935.035 265.47C938.384 263.513 943.254 263.156 944.846 258.702C946.254 254.763 942.861 248.853 942.646 244.697C942.53 242.445 943.303 240.109 942.119 237.931C940.944 235.768 937.614 235.443 935.667 234.247C930.6 231.135 924.005 227.395 917.827 227.371C912.267 227.349 905.575 229.251 900.171 227.515C892.413 225.022 887.622 205.3 880.838 199.745C871.55 192.138 857.985 204.867 849.476 202.132C843.256 200.133 851.571 186.963 840.955 183.551C834.303 181.413 814.797 186.114 809.743 191.129C807.329 193.524 804.146 198.186 803.661 201.486C803.459 202.864 803.269 202.795 803.221 206.282C803.164 210.421 803.492 212.703 803.265 215.428C802.757 221.521 800.867 227.966 798.312 233.536C795.323 240.052 788.445 241.777 784.494 247.406C777.971 256.699 784.584 271.342 791.739 278.415C799.681 286.267 812.552 284.679 822.697 285.439C829.358 285.938 834.72 289.357 841.175 290.284C847.782 291.232 851.568 288.799 857.851 287.807C864.134 286.815 869.773 290.844 873.994 289.999C878.215 289.153 880.825 287.488 883.918 285.695Z" fill="#c4e257" fill-rule="evenodd" opacity="1" stroke="none"/>
<path d="M728.331 211.275C724.536 217.032 723.658 223.908 717.396 228.434C708.254 235.04 688.126 233.733 684.567 246.874C683.614 250.393 684.443 254.232 684.373 257.804C684.309 261.112 682.973 264.666 685.88 267.099C689.686 270.284 695.729 270.924 700.086 273.462C702.594 274.923 706.233 281.368 708.759 281.68C712.072 282.088 718.327 276.85 720.956 275.342C725.918 272.494 731.416 269.445 735.346 265.238C738.336 262.038 739.417 257.471 742.14 254.083C744.281 251.419 748.901 248.808 749.363 245.057C750.278 237.634 737.662 234.458 735.564 227.905C734.3 223.956 737.259 219.674 735.898 215.839C735.45 214.577 730.75 207.606 728.331 211.275Z" fill="#c4e257" fill-rule="evenodd" opacity="1" stroke="none"/>
<path d="M742.416 220.978C740.011 221.268 741.105 228.434 743.878 228.738C748.151 229.207 744.196 220.765 742.416 220.978Z" fill="#c4e257" fill-rule="evenodd" opacity="1" stroke="none"/>
<path d="M696.063 276.957C696.67 276.628 700.508 276.646 701.108 277.248C701.905 278.049 700.89 280.751 699.944 281.064C698.272 281.617 693.542 278.323 696.063 276.957Z" fill="#ffffff" fill-rule="evenodd" opacity="1" stroke="none"/>
<path d="M-181.219 22.8677C-183.095 26.3204-186.313 27.1909-187.491 27.6816C-189.118 28.3597-191.947 27.7384-193.728 27.7912C-198.803 27.9415-202.273 33.9109-202.658 38.5066C-203.265 45.7525-192.805 45.2736-188.424 46.9194C-181.209 49.6298-183.156 57.8512-185.499 63.1858C-188.343 69.6618-202.37 76.8247-208.52 80.4839C-213.778 83.6122-221.09 93.5038-221.861 99.6756C-222.082 101.442-220.665 102.541-220.75 104.192C-220.834 105.826-225.951 111.339-224.828 112.47C-222.293 115.024-218.265 111.234-216.061 110.18C-211.3 107.904-207.025 103.383-202.295 101.54C-199.887 100.601-197.124 100.446-194.724 99.5109C-192.854 98.7823-189.091 95.3227-186.82 97.2843C-184.396 99.3775-188.817 103.686-190.165 104.902C-196.075 110.235-202.015 114.273-208.397 118.9C-225.682 131.434-241.274 141.159-244.725 164.149C-246.77 177.768-230.733 186.197-219.06 185.343C-214.428 185.004-210.341 182.035-205.643 181.412C-202.254 180.962-193.66 177.794-190.913 181.201C-186.864 186.222-187.908 200.699-186.367 207.757C-185.55 211.496-178.444 211.773-178.766 215.615C-179.553 225.015-205.928 243.383-185.932 251.616C-178.603 254.633-165.514 249.951-159.965 244.944C-157.063 242.326-154.773 239.051-151.641 236.615C-136.906 225.154-113.047 201.698-118.987 180.273C-120.563 174.587-123.518 168.262-125.822 162.732C-130.332 151.908-149.829 129.991-145.032 118.339C-142.478 112.138-137.732 116.992-134.552 119.307C-129.884 122.704-116.448 140.461-111.4 138.17C-107.199 136.263-108.346 129.213-109.098 125.771C-110.547 119.132-116.803 103.287-110.05 96.1756C-101.75 87.4352-98.26 91.7973-94.533 89.3467C-90.669 86.8059-88.589 81.5468-85.181 78.413C-81.772 75.2789-75.748 73.2864-73.914 68.7653C-72.19 64.5156-72.919 59.9417-70.352 55.8368C-66.93 50.3642-54.7 44.7662-59.82 37.4089C-75.849 14.3746-116.922 5.43806-142.727 13.0322C-151.881 15.7261-162.307 11.9809-171.518 14.2421C-178.698 16.0047-179.343 19.415-181.219 22.8677Z" fill="#c4e257" fill-rule="evenodd" opacity="1" stroke="none"/>
<path d="M-219.213 45.6639C-219.063 48.2718-215.551 53.8801-216.344 55.9692C-218.994 62.9518-226.3 60.9598-222.893 71.2556C-222.351 72.8926-220.706 73.7878-219.002 73.8828C-211.355 74.309-203.284 64.4923-205.108 57.1276C-206.147 52.9339-208.037 47.4869-211.759 45.4485C-214.006 44.218-219.338 43.4977-219.213 45.6639Z" fill="#ffffff" fill-rule="evenodd" opacity="1" stroke="none"/>
<path d="M-216.102 203.884C-216.2 205.001-212.341 219.24-211.276 219.827C-209.503 220.803-206.293 219.331-203.94 220.627C-201.835 221.786-202.355 227.646-199.197 226.426C-182.657 220.036-197.883 211.961-200.463 204.02C-202.3 198.367-201.638 191.116-207.505 187.884C-210.815 186.06-212.653 188.181-214.248 190.812C-217.34 195.915-215.956 202.216-216.102 203.884Z" fill="#ffffff" fill-rule="evenodd" opacity="1" stroke="none"/>
<path d="M-203.665 229.922C-205.377 230.4-205.975 235.09-206.03 236.891C-206.079 238.512-204.961 238.991-204.458 239.009C-203.831 239.031-202.238 237.933-201.71 237.641C-195.74 234.338-199.988 228.895-203.665 229.922Z" fill="#ffffff" fill-rule="evenodd" opacity="1" stroke="none"/>
<path d="M103.897 39.0227C102.948 35.3207 100.658 14.7601 104.051 12.7714C115.168 6.25708 124.7 17.9709 127.447 18.0246C138.841 18.2469 142.391 28.3881 141.998 31.1464C141.604 33.9047 137.869 39.6156 135.088 47.8866C132.308 56.1575 138.254 59.8843 134.904 67.3692C131.167 75.7182 123.928 79.5595 118.123 80.2231C112.832 80.8281 107.177 78.0764 106.614 74.3168C106.34 72.4835 105.64 67.3099 106.699 63.2679C107.686 59.4995 102.788 58.3436 100.375 53.3082C97.962 48.2728 105.045 43.5031 103.897 39.0227Z" fill="#c4e257" fill-rule="evenodd" opacity="1" stroke="none"/>
<path d="M89.1785 20.9903C88.8265 19.8392 81.2935 24.3257 80.4605 25.4208C78.9825 27.3661 75.6755 45.2655 76.6185 47.1814C80.1855 54.4323 91.0145 48.5091 93.1125 43.312C95.7424 36.7974 87.7445 37.2815 86.9745 33.3681C86.0325 28.575 90.5184 25.3702 89.1785 20.9903Z" fill="#b2ce4f" fill-rule="evenodd" opacity="1" stroke="none"/>
<path d="M97.5817 94.2797C96.9496 94.5365 96.5167 94.9819 96.2797 95.4279C95.6406 96.6335 96.0687 101.754 97.5496 102.128C102.247 103.314 102.254 92.3821 97.5817 94.2797Z" fill="#b2ce4f" fill-rule="evenodd" opacity="1" stroke="none"/>
<path d="M7.57196 143.89C28.573 144.704 30.585 132.119 43.297 132.882C47.879 133.157 47.8939 138.996 51.91 140.46C57.869 142.631 61.287 141.101 60.84 148.542C60.36 156.542 49.9929 150.457 46.0059 151.182C41.821 151.942 39.08 156.562 35.337 158.226C30.3159 160.458 18.5 162.406 13.349 160.09C8.72696 158.012 3.32797 143.726 7.57196 143.89Z" fill="#ffffff" fill-rule="evenodd" opacity="1" stroke="none"/>
<path d="M69.505 22.8531C72.115 25.8283 72.706 30.805 71.855 34.1452C70.708 38.6438 66.125 63.7851 68.387 66.6986C74.705 74.8349 92.089 59.4989 96.842 70.2786C98.24 73.4484 92.849 78.0882 91.459 80.5979C89.561 84.0267 90.124 95.8475 86.226 97.2197C78.673 99.8788 73.962 90.2113 67.392 102.076C63.729 108.693 64.522 118.692 66.948 125.585C68.861 131.018 73.375 137.759 69.988 143.876C68.735 146.139 64.822 141.535 64.113 140.623C60.93 136.523 57.435 131.431 54.845 126.889C53.788 125.037 53.256 120.943 51.68 119.579C49.475 117.671 45.516 121.014 43.829 122.047C39.502 124.698 35.138 130.242 29.821 130.331C27.113 130.377 22.603 129.21 19.923 129.188C14.56 129.143 11.504 127.909 5.492 125.367C0.951996 123.446 0.614014 120.549-2.284 119.29C-4.957 118.129-12.427 123.674-18.736 122.902C-21.497 122.565-23.866 118.776-25.838 117.128C-29.831 113.791-36.93 110.765-42.002 110.145C-47.489 109.473-61.065 109.726-60.329 101.195C-59.631 93.1039-44.621 79.9085-39.633 73.5935C-34.953 67.6686-31.98 60.2504-30.689 52.8635C-30.072 49.3301-31.548 45.2364-28.806 42.382C-21.95 35.2439-8.33701 39.6392 0.140991 35.7124C6.258 32.8795 9.29501 25.8983 15.948 23.5307C29.286 18.7842 37.492 20.6094 51.192 21.0355C55.273 21.1624 63.477 15.9823 69.505 22.8531Z" fill="#c4e257" fill-rule="evenodd" opacity="1" stroke="none"/>
<path d="M83.918 285.695C87.01 283.901 92.873 283.379 95.194 282.119C97.855 280.673 98.838 276.825 101.854 276.104C110.205 274.107 118.02 270.171 126.431 268.159C129.064 267.53 132.653 266.863 135.035 265.47C138.384 263.513 143.254 263.156 144.846 258.702C146.254 254.763 142.861 248.853 142.646 244.697C142.53 242.445 143.303 240.109 142.119 237.931C140.944 235.768 137.614 235.443 135.667 234.247C130.6 231.135 124.005 227.395 117.827 227.371C112.267 227.349 105.575 229.251 100.171 227.515C92.413 225.022 87.622 205.3 80.838 199.745C71.55 192.138 57.985 204.867 49.476 202.132C43.256 200.133 51.571 186.963 40.955 183.551C34.303 181.413 14.797 186.114 9.74301 191.129C7.32901 193.524 4.146 198.186 3.66101 201.486C3.45901 202.864 3.26901 202.795 3.22101 206.282C3.164 210.421 3.492 212.703 3.26501 215.428C2.75699 221.521 0.867004 227.966-1.68799 233.536C-4.677 240.052-11.555 241.777-15.506 247.406C-22.029 256.699-15.416 271.342-8.26099 278.415C-0.319 286.267 12.552 284.679 22.697 285.439C29.358 285.938 34.72 289.357 41.175 290.284C47.782 291.232 51.568 288.799 57.851 287.807C64.134 286.815 69.773 290.844 73.994 289.999C78.215 289.153 80.825 287.488 83.918 285.695Z" fill="#c4e257" fill-rule="evenodd" opacity="1" stroke="none"/>
<path d="M-71.669 211.275C-75.464 217.032-76.342 223.908-82.604 228.434C-91.746 235.04-111.874 233.733-115.433 246.874C-116.386 250.393-115.557 254.232-115.627 257.804C-115.691 261.112-117.027 264.666-114.12 267.099C-110.314 270.284-104.271 270.924-99.914 273.462C-97.406 274.923-93.767 281.368-91.241 281.68C-87.928 282.088-81.673 276.85-79.044 275.342C-74.082 272.494-68.584 269.445-64.654 265.238C-61.664 262.038-60.583 257.471-57.86 254.083C-55.719 251.419-51.099 248.808-50.637 245.057C-49.722 237.634-62.338 234.458-64.436 227.905C-65.7 223.956-62.741 219.674-64.102 215.839C-64.55 214.577-69.25 207.606-71.669 211.275Z" fill="#c4e257" fill-rule="evenodd" opacity="1" stroke="none"/>
<path d="M-57.584 220.978C-59.989 221.268-58.895 228.434-56.122 228.738C-51.849 229.207-55.804 220.765-57.584 220.978Z" fill="#c4e257" fill-rule="evenodd" opacity="1" stroke="none"/>
<path d="M-103.937 276.957C-103.33 276.628-99.492 276.646-98.892 277.248C-98.095 278.049-99.11 280.751-100.056 281.064C-101.728 281.617-106.458 278.323-103.937 276.957Z" fill="#ffffff" fill-rule="evenodd" opacity="1" stroke="none"/>
</g>
<g id="body" vectornator:layerName="body">
<g opacity="1">
<path d="M150 0L550 0L550 300L150 300L150 0Z" fill="#000000" fill-opacity="0.101629" fill-rule="evenodd" opacity="1" stroke="none"/>
<path d="M218.781 22.8677C216.905 26.3204 213.687 27.1909 212.509 27.6816C210.882 28.3597 208.053 27.7384 206.272 27.7912C201.197 27.9415 197.727 33.9109 197.342 38.5066C196.735 45.7525 207.195 45.2736 211.576 46.9194C218.791 49.6298 216.844 57.8512 214.501 63.1858C211.657 69.6618 197.63 76.8247 191.48 80.4839C186.222 83.6122 178.91 93.5038 178.139 99.6756C177.918 101.442 179.335 102.541 179.25 104.192C179.166 105.826 174.049 111.339 175.172 112.47C177.707 115.024 181.735 111.234 183.939 110.18C188.7 107.904 192.975 103.383 197.705 101.54C200.113 100.601 202.876 100.446 205.276 99.5109C207.146 98.7823 210.909 95.3227 213.18 97.2843C215.604 99.3775 211.183 103.686 209.835 104.902C203.925 110.235 197.985 114.273 191.603 118.9C174.318 131.434 158.726 141.159 155.275 164.149C153.23 177.768 169.267 186.197 180.94 185.343C185.572 185.004 189.659 182.035 194.357 181.412C197.746 180.962 206.34 177.794 209.087 181.201C213.136 186.222 212.092 200.699 213.633 207.757C214.45 211.496 221.556 211.773 221.234 215.615C220.447 225.015 194.072 243.383 214.068 251.616C221.397 254.633 234.486 249.951 240.035 244.944C242.937 242.326 245.227 239.051 248.359 236.615C263.094 225.154 286.953 201.698 281.013 180.273C279.437 174.587 276.482 168.262 274.178 162.732C269.668 151.908 250.171 129.991 254.968 118.339C257.522 112.138 262.268 116.992 265.448 119.307C270.116 122.704 283.552 140.461 288.6 138.17C292.801 136.263 291.654 129.213 290.902 125.771C289.453 119.132 283.197 103.287 289.95 96.1756C298.25 87.4352 301.74 91.7973 305.467 89.3467C309.331 86.8059 311.411 81.5468 314.819 78.413C318.228 75.2789 324.252 73.2864 326.086 68.7653C327.81 64.5156 327.081 59.9417 329.648 55.8368C333.07 50.3642 345.3 44.7662 340.18 37.4089C324.151 14.3746 283.078 5.43806 257.273 13.0322C248.119 15.7261 237.693 11.9809 228.482 14.2421C221.302 16.0047 220.657 19.415 218.781 22.8677Z" fill="#c4e257" fill-rule="evenodd" opacity="1" stroke="none"/>
<path d="M180.787 45.6639C180.937 48.2718 184.449 53.8801 183.656 55.9692C181.006 62.9518 173.7 60.9598 177.107 71.2556C177.649 72.8926 179.294 73.7878 180.998 73.8828C188.645 74.309 196.716 64.4923 194.892 57.1276C193.853 52.9339 191.963 47.4869 188.241 45.4485C185.994 44.218 180.662 43.4977 180.787 45.6639Z" fill="#ffffff" fill-rule="evenodd" opacity="1" stroke="none"/>
<path d="M183.898 203.884C183.8 205.001 187.659 219.24 188.724 219.827C190.497 220.803 193.707 219.331 196.06 220.627C198.165 221.786 197.645 227.646 200.803 226.426C217.343 220.036 202.117 211.961 199.537 204.02C197.7 198.367 198.362 191.116 192.495 187.884C189.185 186.06 187.347 188.181 185.752 190.812C182.66 195.915 184.044 202.216 183.898 203.884Z" fill="#ffffff" fill-rule="evenodd" opacity="1" stroke="none"/>
<path d="M196.335 229.922C194.623 230.4 194.025 235.09 193.97 236.891C193.921 238.512 195.039 238.991 195.542 239.009C196.169 239.031 197.762 237.933 198.29 237.641C204.26 234.338 200.012 228.895 196.335 229.922Z" fill="#ffffff" fill-rule="evenodd" opacity="1" stroke="none"/>
<path d="M503.897 39.0227C502.948 35.3207 500.658 14.7601 504.051 12.7714C515.168 6.25708 524.7 17.9709 527.447 18.0246C538.841 18.2469 542.391 28.3881 541.998 31.1464C541.604 33.9047 537.869 39.6156 535.088 47.8866C532.308 56.1575 538.254 59.8843 534.904 67.3692C531.167 75.7182 523.928 79.5595 518.123 80.2231C512.832 80.8281 507.177 78.0764 506.614 74.3168C506.34 72.4835 505.64 67.3099 506.699 63.2679C507.686 59.4995 502.788 58.3436 500.375 53.3082C497.962 48.2728 505.045 43.5031 503.897 39.0227Z" fill="#c4e257" fill-rule="evenodd" opacity="1" stroke="none"/>
<path d="M489.178 20.9903C488.826 19.8392 481.293 24.3257 480.46 25.4208C478.982 27.3661 475.675 45.2655 476.618 47.1814C480.185 54.4323 491.014 48.5091 493.112 43.312C495.742 36.7974 487.744 37.2815 486.974 33.3681C486.032 28.575 490.518 25.3702 489.178 20.9903Z" fill="#b2ce4f" fill-rule="evenodd" opacity="1" stroke="none"/>
<path d="M497.582 94.2797C496.95 94.5365 496.517 94.9819 496.28 95.4279C495.641 96.6335 496.069 101.754 497.55 102.128C502.247 103.314 502.254 92.3821 497.582 94.2797Z" fill="#b2ce4f" fill-rule="evenodd" opacity="1" stroke="none"/>
<path d="M407.572 143.89C428.573 144.704 430.585 132.119 443.297 132.882C447.879 133.157 447.894 138.996 451.91 140.46C457.869 142.631 461.287 141.101 460.84 148.542C460.36 156.542 449.993 150.457 446.006 151.182C441.821 151.942 439.08 156.562 435.337 158.226C430.316 160.458 418.5 162.406 413.349 160.09C408.727 158.012 403.328 143.726 407.572 143.89Z" fill="#ffffff" fill-rule="evenodd" opacity="1" stroke="none"/>
<path d="M469.505 22.8531C472.115 25.8283 472.706 30.805 471.855 34.1452C470.708 38.6438 466.125 63.7851 468.387 66.6986C474.705 74.8349 492.089 59.4989 496.842 70.2786C498.24 73.4484 492.849 78.0882 491.459 80.5979C489.561 84.0267 490.124 95.8475 486.226 97.2197C478.673 99.8788 473.962 90.2113 467.392 102.076C463.729 108.693 464.522 118.692 466.948 125.585C468.861 131.018 473.375 137.759 469.988 143.876C468.735 146.139 464.822 141.535 464.113 140.623C460.93 136.523 457.435 131.431 454.845 126.889C453.788 125.037 453.256 120.943 451.68 119.579C449.475 117.671 445.516 121.014 443.829 122.047C439.502 124.698 435.138 130.242 429.821 130.331C427.113 130.377 422.603 129.21 419.923 129.188C414.56 129.143 411.504 127.909 405.492 125.367C400.952 123.446 400.614 120.549 397.716 119.29C395.043 118.129 387.573 123.674 381.264 122.902C378.503 122.565 376.134 118.776 374.162 117.128C370.169 113.791 363.07 110.765 357.998 110.145C352.511 109.473 338.935 109.726 339.671 101.195C340.369 93.1039 355.379 79.9085 360.367 73.5935C365.047 67.6686 368.02 60.2504 369.311 52.8635C369.928 49.3301 368.452 45.2364 371.194 42.382C378.05 35.2439 391.663 39.6392 400.141 35.7124C406.258 32.8795 409.295 25.8983 415.948 23.5307C429.286 18.7842 437.492 20.6094 451.192 21.0355C455.273 21.1624 463.477 15.9823 469.505 22.8531Z" fill="#c4e257" fill-rule="evenodd" opacity="1" stroke="none"/>
<path d="M483.918 285.695C487.01 283.901 492.873 283.379 495.194 282.119C497.855 280.673 498.838 276.825 501.854 276.104C510.205 274.107 518.02 270.171 526.431 268.159C529.064 267.53 532.653 266.863 535.035 265.47C538.384 263.513 543.254 263.156 544.846 258.702C546.254 254.763 542.861 248.853 542.646 244.697C542.53 242.445 543.303 240.109 542.119 237.931C540.944 235.768 537.614 235.443 535.667 234.247C530.6 231.135 524.005 227.395 517.827 227.371C512.267 227.349 505.575 229.251 500.171 227.515C492.413 225.022 487.622 205.3 480.838 199.745C471.55 192.138 457.985 204.867 449.476 202.132C443.256 200.133 451.571 186.963 440.955 183.551C434.303 181.413 414.797 186.114 409.743 191.129C407.329 193.524 404.146 198.186 403.661 201.486C403.459 202.864 403.269 202.795 403.221 206.282C403.164 210.421 403.492 212.703 403.265 215.428C402.757 221.521 400.867 227.966 398.312 233.536C395.323 240.052 388.445 241.777 384.494 247.406C377.971 256.699 384.584 271.342 391.739 278.415C399.681 286.267 412.552 284.679 422.697 285.439C429.358 285.938 434.72 289.357 441.175 290.284C447.782 291.232 451.568 288.799 457.851 287.807C464.134 286.815 469.773 290.844 473.994 289.999C478.215 289.153 480.825 287.488 483.918 285.695Z" fill="#c4e257" fill-rule="evenodd" opacity="1" stroke="none"/>
<path d="M328.331 211.275C324.536 217.032 323.658 223.908 317.396 228.434C308.254 235.04 288.126 233.733 284.567 246.874C283.614 250.393 284.443 254.232 284.373 257.804C284.309 261.112 282.973 264.666 285.88 267.099C289.686 270.284 295.729 270.924 300.086 273.462C302.594 274.923 306.233 281.368 308.759 281.68C312.072 282.088 318.327 276.85 320.956 275.342C325.918 272.494 331.416 269.445 335.346 265.238C338.336 262.038 339.417 257.471 342.14 254.083C344.281 251.419 348.901 248.808 349.363 245.057C350.278 237.634 337.662 234.458 335.564 227.905C334.3 223.956 337.259 219.674 335.898 215.839C335.45 214.577 330.75 207.606 328.331 211.275Z" fill="#c4e257" fill-rule="evenodd" opacity="1" stroke="none"/>
<path d="M342.416 220.978C340.011 221.268 341.105 228.434 343.878 228.738C348.151 229.207 344.196 220.765 342.416 220.978Z" fill="#c4e257" fill-rule="evenodd" opacity="1" stroke="none"/>
<path d="M296.063 276.957C296.67 276.628 300.508 276.646 301.108 277.248C301.905 278.049 300.89 280.751 299.944 281.064C298.272 281.617 293.542 278.323 296.063 276.957Z" fill="#ffffff" fill-rule="evenodd" opacity="1" stroke="none"/>
</g>
</g>
<g id="shiny" vectornator:layerName="shiny">
<path d="M197.781 7.90625C250.871 50.7816 278.191 115.614 262.844 178.75C248.01 239.77 196.967 283.724 133.219 299C138.733 299.614 144.322 300 150 300C232.843 300 300 232.843 300 150C300 83.887 257.163 27.8776 197.781 7.90625Z" fill="#000000" fill-opacity="0.128233" fill-rule="evenodd" opacity="1" stroke="none"/>
<g opacity="1">
<path d="M134.937 52.5352L134.937 52.5352C141.722 78.4544 123.306 111.754 93.8033 126.911L93.8033 126.911C64.3003 142.069 34.8826 133.345 28.0972 107.426L28.0972 107.426C21.3117 81.5065 39.7279 48.2072 69.2309 33.0496L69.2309 33.0496C98.7339 17.892 128.152 26.616 134.937 52.5352Z" fill="#ffffff" fill-opacity="0.153282" fill-rule="evenodd" opacity="1" stroke="none"/>
<path d="M125.847 50.9089L125.847 50.9089C130.345 67.3212 118.452 88.3244 99.2828 97.8208L99.2828 97.8208C80.1138 107.317 60.928 101.711 56.4301 85.2986L56.4301 85.2986C51.9323 68.8863 63.8255 47.8831 82.9945 38.3866L82.9945 38.3866C102.163 28.8902 121.349 34.4966 125.847 50.9089Z" fill="#ffffff" fill-opacity="0.25" fill-rule="evenodd" opacity="1" stroke="none"/>
<path d="M116.081 53.8466L116.081 53.8466C118.564 64.0444 111.533 77.2223 100.378 83.2802L100.378 83.2802C89.2228 89.3382 78.167 85.9822 75.6842 75.7844L75.6842 75.7844C73.2014 65.5866 80.2317 52.4087 91.387 46.3507L91.387 46.3507C102.542 40.2927 113.598 43.6488 116.081 53.8466Z" fill="#ffffff" fill-opacity="0.452702" fill-rule="evenodd" opacity="1" stroke="none"/>
</g>
</g>
</svg>
