<?xml version="1.0" encoding="UTF-8" standalone="no"?>
<!DOCTYPE svg PUBLIC "-//W3C//DTD SVG 1.1//EN" "http://www.w3.org/Graphics/SVG/1.1/DTD/svg11.dtd">

<!-- Created with Vectornator (http://vectornator.io/) -->
<svg height="100%" stroke-miterlimit="10" style="fill-rule:nonzero;clip-rule:evenodd;stroke-linecap:round;stroke-linejoin:round;" version="1.1" viewBox="0 0 2388 1668" width="100%" xml:space="preserve" xmlns="http://www.w3.org/2000/svg" xmlns:vectornator="http://vectornator.io" xmlns:xlink="http://www.w3.org/1999/xlink">
<metadata>
<vectornator:setting key="IsTimeLapseWatermarkDisabled" value="false"/>
<vectornator:setting key="UndoHistoryDisabled" value="true"/>
<vectornator:setting key="VNDimensionsVisible" value="true"/>
<vectornator:setting key="VNSnapToGuides" value="true"/>
<vectornator:setting key="WDCMYKEnabledKey" value="false"/>
<vectornator:setting key="WDDisplayWhiteBackground" value="true"/>
<vectornator:setting key="WDDynamicGuides" value="true"/>
<vectornator:setting key="WDGuidesVisible" value="true"/>
<vectornator:setting key="WDIsolateActiveLayer" value="false"/>
<vectornator:setting key="WDOutlineMode" value="false"/>
<vectornator:setting key="WDRulersVisible" value="true"/>
<vectornator:setting key="WDSnapToEdges" value="false"/>
<vectornator:setting key="WDSnapToGrid" value="false"/>
<vectornator:setting key="WDSnapToPoints" value="false"/>
<vectornator:setting key="WDUnits" value="Points"/>
</metadata>
<defs/>
<g id="planet" vectornator:layerName="planet">
<path d="M150-0.294977L150-0.294977C232.752-0.294977 299.836 66.9516 299.836 149.904L299.836 149.904C299.836 232.857 232.752 300.104 150 300.104L150 300.104C67.2477 300.104 0.163719 232.857 0.163719 149.904L0.163719 149.904C0.163719 66.9516 67.2477-0.294977 150-0.294977Z" fill="#dae7f2" fill-rule="evenodd" opacity="1" stroke="none"/>
</g>
<g id="helper" vectornator:layerName="helper">
<path d="M198.055 77.5876L198.055 77.5876C215.061 77.5876 228.848 80.545 228.848 84.1931L228.848 84.1931C228.848 87.8412 215.061 90.7986 198.055 90.7986L198.055 90.7986C181.048 90.7986 167.262 87.8412 167.262 84.1931L167.262 84.1931C167.262 80.545 181.048 77.5876 198.055 77.5876Z" fill="#aac1cc" fill-rule="evenodd" opacity="1" stroke="none"/>
<path d="M352.549 63.3929L352.549 63.3929C370.425 63.3929 384.917 66.9794 384.917 71.4032L384.917 71.4032C384.917 75.8282 370.425 79.4142 352.549 79.4142L352.549 79.4142C334.673 79.4142 320.181 75.8282 320.181 71.4032L320.181 71.4032C320.181 66.9794 334.673 63.3929 352.549 63.3929Z" fill="#adbfc3" fill-rule="evenodd" opacity="1" stroke="none"/>
<path d="M335.569 243.102L335.569 243.102C352.138 243.102 365.569 245.341 365.569 248.102L365.569 248.102C365.569 250.863 352.138 253.102 335.569 253.102L335.569 253.102C319 253.102 305.569 250.863 305.569 248.102L305.569 248.102C305.569 245.341 319 243.102 335.569 243.102Z" fill="#adbfc3" fill-rule="evenodd" opacity="1" stroke="none"/>
<path d="M474.12 27.5227L474.12 27.5227C487.927 27.5227 499.12 29.696 499.12 32.3769L499.12 32.3769C499.12 35.0579 487.927 37.2312 474.12 37.2312L474.12 37.2312C460.313 37.2312 449.12 35.0579 449.12 32.3769L449.12 32.3769C449.12 29.696 460.313 27.5227 474.12 27.5227Z" fill="#98adb7" fill-rule="evenodd" opacity="1" stroke="none"/>
<path d="M493.447 254.191L493.447 254.191C507.254 254.191 518.447 257.103 518.447 260.695L518.447 260.695C518.447 264.287 507.254 267.199 493.447 267.199L493.447 267.199C479.64 267.199 468.447 264.287 468.447 260.695L468.447 260.695C468.447 257.103 479.64 254.191 493.447 254.191Z" fill="#a9bfca" fill-rule="evenodd" opacity="1" stroke="none"/>
<path d="M474.506 110.497L474.506 110.497C491.075 110.497 504.506 112.532 504.506 115.043L504.506 115.043C504.506 117.554 491.075 119.589 474.506 119.589L474.506 119.589C457.937 119.589 444.506 117.554 444.506 115.043L444.506 115.043C444.506 112.532 457.937 110.497 474.506 110.497Z" fill="#98adb7" fill-rule="evenodd" opacity="1" stroke="none"/>
<path d="M221.317 177.695L221.317 177.695C242.863 177.695 260.329 181.385 260.329 185.937L260.329 185.937C260.329 190.489 242.863 194.179 221.317 194.179L221.317 194.179C199.771 194.179 182.305 190.489 182.305 185.937L182.305 185.937C182.305 181.385 199.771 177.695 221.317 177.695Z" fill="#c1d4d9" fill-rule="evenodd" opacity="1" stroke="none"/>
<path d="M179.349 271.178L179.349 271.178C190.035 271.178 198.697 273.153 198.697 275.589L198.697 275.589C198.697 278.025 190.035 280 179.349 280L179.349 280C168.663 280 160 278.025 160 275.589L160 275.589C160 273.153 168.663 271.178 179.349 271.178Z" fill="#98adb7" fill-rule="evenodd" opacity="1" stroke="none"/>
<path d="M236.381 18.9383L236.381 18.9383C247.066 18.9383 255.729 20.9133 255.729 23.3495L255.729 23.3495C255.729 25.7858 247.066 27.7607 236.381 27.7607L236.381 27.7607C225.695 27.7607 217.032 25.7858 217.032 23.3495L217.032 23.3495C217.032 20.9133 225.695 18.9383 236.381 18.9383Z" fill="#9babaf" fill-rule="evenodd" opacity="1" stroke="none"/>
<path d="M405.803 173.597L405.803 173.597C419.497 173.597 430.598 176.602 430.598 180.308L430.598 180.308C430.598 184.014 419.497 187.019 405.803 187.019L405.803 187.019C392.11 187.019 381.009 184.014 381.009 180.308L381.009 180.308C381.009 176.602 392.11 173.597 405.803 173.597Z" fill="#889ba4" fill-rule="evenodd" opacity="1" stroke="none"/>
<path d="M598.055 77.5876L598.055 77.5876C615.061 77.5876 628.848 80.545 628.848 84.1931L628.848 84.1931C628.848 87.8412 615.061 90.7986 598.055 90.7986L598.055 90.7986C581.048 90.7986 567.262 87.8412 567.262 84.1931L567.262 84.1931C567.262 80.545 581.048 77.5876 598.055 77.5876Z" fill="#aac1cc" fill-rule="evenodd" opacity="1" stroke="none"/>
<path d="M752.549 63.3929L752.549 63.3929C770.425 63.3929 784.917 66.9794 784.917 71.4032L784.917 71.4032C784.917 75.8282 770.425 79.4142 752.549 79.4142L752.549 79.4142C734.673 79.4142 720.181 75.8282 720.181 71.4032L720.181 71.4032C720.181 66.9794 734.673 63.3929 752.549 63.3929Z" fill="#adbfc3" fill-rule="evenodd" opacity="1" stroke="none"/>
<path d="M735.569 243.102L735.569 243.102C752.138 243.102 765.569 245.341 765.569 248.102L765.569 248.102C765.569 250.863 752.138 253.102 735.569 253.102L735.569 253.102C719 253.102 705.569 250.863 705.569 248.102L705.569 248.102C705.569 245.341 719 243.102 735.569 243.102Z" fill="#adbfc3" fill-rule="evenodd" opacity="1" stroke="none"/>
<path d="M874.12 27.5227L874.12 27.5227C887.927 27.5227 899.12 29.696 899.12 32.3769L899.12 32.3769C899.12 35.0579 887.927 37.2312 874.12 37.2312L874.12 37.2312C860.313 37.2312 849.12 35.0579 849.12 32.3769L849.12 32.3769C849.12 29.696 860.313 27.5227 874.12 27.5227Z" fill="#98adb7" fill-rule="evenodd" opacity="1" stroke="none"/>
<path d="M893.447 254.191L893.447 254.191C907.254 254.191 918.447 257.103 918.447 260.695L918.447 260.695C918.447 264.287 907.254 267.199 893.447 267.199L893.447 267.199C879.64 267.199 868.447 264.287 868.447 260.695L868.447 260.695C868.447 257.103 879.64 254.191 893.447 254.191Z" fill="#a9bfca" fill-rule="evenodd" opacity="1" stroke="none"/>
<path d="M874.506 110.497L874.506 110.497C891.075 110.497 904.506 112.532 904.506 115.043L904.506 115.043C904.506 117.554 891.075 119.589 874.506 119.589L874.506 119.589C857.937 119.589 844.506 117.554 844.506 115.043L844.506 115.043C844.506 112.532 857.937 110.497 874.506 110.497Z" fill="#98adb7" fill-rule="evenodd" opacity="1" stroke="none"/>
<path d="M621.317 177.695L621.317 177.695C642.863 177.695 660.329 181.385 660.329 185.937L660.329 185.937C660.329 190.489 642.863 194.179 621.317 194.179L621.317 194.179C599.771 194.179 582.305 190.489 582.305 185.937L582.305 185.937C582.305 181.385 599.771 177.695 621.317 177.695Z" fill="#c1d4d9" fill-rule="evenodd" opacity="1" stroke="none"/>
<path d="M579.349 271.178L579.349 271.178C590.035 271.178 598.697 273.153 598.697 275.589L598.697 275.589C598.697 278.025 590.035 280 579.349 280L579.349 280C568.663 280 560 278.025 560 275.589L560 275.589C560 273.153 568.663 271.178 579.349 271.178Z" fill="#98adb7" fill-rule="evenodd" opacity="1" stroke="none"/>
<path d="M636.381 18.9383L636.381 18.9383C647.066 18.9383 655.729 20.9133 655.729 23.3495L655.729 23.3495C655.729 25.7858 647.066 27.7607 636.381 27.7607L636.381 27.7607C625.695 27.7607 617.032 25.7858 617.032 23.3495L617.032 23.3495C617.032 20.9133 625.695 18.9383 636.381 18.9383Z" fill="#9babaf" fill-rule="evenodd" opacity="1" stroke="none"/>
<path d="M805.803 173.597L805.803 173.597C819.497 173.597 830.598 176.602 830.598 180.308L830.598 180.308C830.598 184.014 819.497 187.019 805.803 187.019L805.803 187.019C792.11 187.019 781.009 184.014 781.009 180.308L781.009 180.308C781.009 176.602 792.11 173.597 805.803 173.597Z" fill="#889ba4" fill-rule="evenodd" opacity="1" stroke="none"/>
<path d="M-201.946 77.5876L-201.946 77.5876C-184.94 77.5876-171.153 80.545-171.153 84.1931L-171.153 84.1931C-171.153 87.8412-184.94 90.7986-201.946 90.7986L-201.946 90.7986C-218.953 90.7986-232.739 87.8412-232.739 84.1931L-232.739 84.1931C-232.739 80.545-218.953 77.5876-201.946 77.5876Z" fill="#aac1cc" fill-rule="evenodd" opacity="1" stroke="none"/>
<path d="M-47.4513 63.3929L-47.4513 63.3929C-29.5753 63.3929-15.0833 66.9794-15.0833 71.4032L-15.0833 71.4032C-15.0833 75.8282-29.5753 79.4142-47.4513 79.4142L-47.4513 79.4142C-65.3273 79.4142-79.8193 75.8282-79.8193 71.4032L-79.8193 71.4032C-79.8193 66.9794-65.3273 63.3929-47.4513 63.3929Z" fill="#adbfc3" fill-rule="evenodd" opacity="1" stroke="none"/>
<path d="M-64.4316 243.102L-64.4316 243.102C-47.8626 243.102-34.4316 245.341-34.4316 248.102L-34.4316 248.102C-34.4316 250.863-47.8626 253.102-64.4316 253.102L-64.4316 253.102C-81.0006 253.102-94.4316 250.863-94.4316 248.102L-94.4316 248.102C-94.4316 245.341-81.0006 243.102-64.4316 243.102Z" fill="#adbfc3" fill-rule="evenodd" opacity="1" stroke="none"/>
<path d="M74.1197 27.5227L74.1197 27.5227C87.9267 27.5227 99.1197 29.696 99.1197 32.3769L99.1197 32.3769C99.1197 35.0579 87.9267 37.2312 74.1197 37.2312L74.1197 37.2312C60.3127 37.2312 49.1197 35.0579 49.1197 32.3769L49.1197 32.3769C49.1197 29.696 60.3127 27.5227 74.1197 27.5227Z" fill="#98adb7" fill-rule="evenodd" opacity="1" stroke="none"/>
<path d="M93.4466 254.191L93.4466 254.191C107.254 254.191 118.447 257.103 118.447 260.695L118.447 260.695C118.447 264.287 107.254 267.199 93.4466 267.199L93.4466 267.199C79.6396 267.199 68.4466 264.287 68.4466 260.695L68.4466 260.695C68.4466 257.103 79.6396 254.191 93.4466 254.191Z" fill="#a9bfca" fill-rule="evenodd" opacity="1" stroke="none"/>
<path d="M74.5059 110.497L74.5059 110.497C91.0749 110.497 104.506 112.532 104.506 115.043L104.506 115.043C104.506 117.554 91.0749 119.589 74.5059 119.589L74.5059 119.589C57.9369 119.589 44.5059 117.554 44.5059 115.043L44.5059 115.043C44.5059 112.532 57.9369 110.497 74.5059 110.497Z" fill="#98adb7" fill-rule="evenodd" opacity="1" stroke="none"/>
<path d="M-178.683 177.695L-178.683 177.695C-157.137 177.695-139.671 181.385-139.671 185.937L-139.671 185.937C-139.671 190.489-157.137 194.179-178.683 194.179L-178.683 194.179C-200.229 194.179-217.695 190.489-217.695 185.937L-217.695 185.937C-217.695 181.385-200.229 177.695-178.683 177.695Z" fill="#c1d4d9" fill-rule="evenodd" opacity="1" stroke="none"/>
<path d="M-220.651 271.178L-220.651 271.178C-209.965 271.178-201.303 273.153-201.303 275.589L-201.303 275.589C-201.303 278.025-209.965 280-220.651 280L-220.651 280C-231.337 280-240 278.025-240 275.589L-240 275.589C-240 273.153-231.337 271.178-220.651 271.178Z" fill="#98adb7" fill-rule="evenodd" opacity="1" stroke="none"/>
<path d="M-163.619 18.9383L-163.619 18.9383C-152.934 18.9383-144.271 20.9133-144.271 23.3495L-144.271 23.3495C-144.271 25.7858-152.934 27.7607-163.619 27.7607L-163.619 27.7607C-174.305 27.7607-182.968 25.7858-182.968 23.3495L-182.968 23.3495C-182.968 20.9133-174.305 18.9383-163.619 18.9383Z" fill="#9babaf" fill-rule="evenodd" opacity="1" stroke="none"/>
<path d="M5.80329 173.597L5.80329 173.597C19.4973 173.597 30.5983 176.602 30.5983 180.308L30.5983 180.308C30.5983 184.014 19.4973 187.019 5.80329 187.019L5.80329 187.019C-7.8897 187.019-18.9907 184.014-18.9907 180.308L-18.9907 180.308C-18.9907 176.602-7.8897 173.597 5.80329 173.597Z" fill="#889ba4" fill-rule="evenodd" opacity="1" stroke="none"/>
</g>
<g id="shiny" vectornator:layerName="shiny">
<path d="M197.781 7.90625C250.871 50.7816 278.191 115.614 262.844 178.75C248.01 239.77 196.967 283.724 133.219 299C138.733 299.614 144.322 300 150 300C232.843 300 300 232.843 300 150C300 83.887 257.163 27.8776 197.781 7.90625Z" fill="#000000" fill-opacity="0.128233" fill-rule="evenodd" opacity="1" stroke="none"/>
<g opacity="1">
<path d="M134.937 52.5352L134.937 52.5352C141.722 78.4544 123.306 111.754 93.8033 126.911L93.8033 126.911C64.3003 142.069 34.8826 133.345 28.0972 107.426L28.0972 107.426C21.3117 81.5065 39.7279 48.2072 69.2309 33.0496L69.2309 33.0496C98.7339 17.892 128.152 26.616 134.937 52.5352Z" fill="#ffffff" fill-opacity="0.153282" fill-rule="evenodd" opacity="1" stroke="none"/>
<path d="M125.847 50.9089L125.847 50.9089C130.345 67.3212 118.452 88.3244 99.2828 97.8208L99.2828 97.8208C80.1138 107.317 60.928 101.711 56.4301 85.2986L56.4301 85.2986C51.9323 68.8863 63.8255 47.8831 82.9945 38.3866L82.9945 38.3866C102.163 28.8902 121.349 34.4966 125.847 50.9089Z" fill="#ffffff" fill-opacity="0.25" fill-rule="evenodd" opacity="1" stroke="none"/>
<path d="M116.081 53.8466L116.081 53.8466C118.564 64.0444 111.533 77.2223 100.378 83.2802L100.378 83.2802C89.2228 89.3382 78.167 85.9822 75.6842 75.7844L75.6842 75.7844C73.2014 65.5866 80.2317 52.4087 91.387 46.3507L91.387 46.3507C102.542 40.2927 113.598 43.6488 116.081 53.8466Z" fill="#ffffff" fill-opacity="0.452702" fill-rule="evenodd" opacity="1" stroke="none"/>
</g>
</g>
</svg>
