<?xml version="1.0" encoding="UTF-8" standalone="no"?>
<!DOCTYPE svg PUBLIC "-//W3C//DTD SVG 1.1//EN" "http://www.w3.org/Graphics/SVG/1.1/DTD/svg11.dtd">

<!-- Created with Vectornator (http://vectornator.io/) -->
<svg height="100%" stroke-miterlimit="10" style="fill-rule:nonzero;clip-rule:evenodd;stroke-linecap:round;stroke-linejoin:round;" version="1.1" viewBox="0 0 2388 1668" width="100%" xml:space="preserve" xmlns="http://www.w3.org/2000/svg" xmlns:vectornator="http://vectornator.io" xmlns:xlink="http://www.w3.org/1999/xlink">
<metadata>
<vectornator:setting key="IsTimeLapseWatermarkDisabled" value="false"/>
<vectornator:setting key="UndoHistoryDisabled" value="true"/>
<vectornator:setting key="VNDimensionsVisible" value="true"/>
<vectornator:setting key="VNSnapToGuides" value="false"/>
<vectornator:setting key="WDCMYKEnabledKey" value="false"/>
<vectornator:setting key="WDDisplayWhiteBackground" value="true"/>
<vectornator:setting key="WDDynamicGuides" value="false"/>
<vectornator:setting key="WDGuidesVisible" value="true"/>
<vectornator:setting key="WDIsolateActiveLayer" value="false"/>
<vectornator:setting key="WDOutlineMode" value="false"/>
<vectornator:setting key="WDRulersVisible" value="true"/>
<vectornator:setting key="WDSnapToEdges" value="false"/>
<vectornator:setting key="WDSnapToGrid" value="false"/>
<vectornator:setting key="WDSnapToPoints" value="false"/>
<vectornator:setting key="WDUnits" value="Pixels"/>
</metadata>
<defs>
<filter color-interpolation-filters="sRGB" filterUnits="userSpaceOnUse" height="410.249" id="Filter" width="803.225" x="0" y="0">
<feDropShadow dx="-0.861781" dy="-0.133715" flood-color="#000000" flood-opacity="0.141116" height="410.249" stdDeviation="6.6376" width="803.225"/>
</filter>
<filter color-interpolation-filters="sRGB" filterUnits="userSpaceOnUse" height="324.301" id="Filter_2" width="645.642" x="0" y="0">
<feDropShadow dx="-0.861781" dy="-0.133715" flood-color="#000000" flood-opacity="0.141116" height="324.301" stdDeviation="6.6376" width="645.642"/>
</filter>
<filter color-interpolation-filters="sRGB" filterUnits="userSpaceOnUse" height="67.6627" id="Filter_3" width="34.7098" x="246.998" y="63.9105">
<feDropShadow dx="-0.861781" dy="-0.133715" flood-color="#000000" flood-opacity="0.141116" height="67.6627" stdDeviation="6.6376" width="34.7098"/>
</filter>
<filter color-interpolation-filters="sRGB" filterUnits="userSpaceOnUse" height="93.2859" id="Filter_4" width="50.677" x="19.6975" y="133.484">
<feDropShadow dx="-0.861781" dy="-0.133715" flood-color="#000000" flood-opacity="0.141116" height="93.2859" stdDeviation="6.6376" width="50.677"/>
</filter>
<filter color-interpolation-filters="sRGB" filterUnits="userSpaceOnUse" height="150.448" id="Filter_5" width="422.322" x="0" y="95.4381">
<feDropShadow dx="-0.861781" dy="-0.133715" flood-color="#000000" flood-opacity="0.141116" height="150.448" stdDeviation="6.6376" width="422.322"/>
</filter>
</defs>
<g id="p-lower" vectornator:layerName="p lower">
<path d="M150 60L150 60C194.183 60 230 95.8172 230 140L230 140C230 184.183 194.183 220 150 220L150 220C105.817 220 70 184.183 70 140L70 140C70 95.8172 105.817 60 150 60Z" fill="#eed3be" fill-rule="evenodd" opacity="1" stroke="none"/>
</g>
<g id="rings" vectornator:layerName="rings">
<path d="M240.531 72.4062C220.979 73.1068 196.877 76.4823 173.531 81.8438C155.264 86.0388 136.26 93.2101 117.188 102.531C106.115 107.943 95.6937 113.733 86.25 119.531C82.9442 121.561 80.0226 123.464 77.4688 125.156C76.5745 125.749 74.4513 127.184 74.3125 127.281C74.2281 127.332 72.6063 128.35 71.9375 128.781C70.0275 130.011 67.8852 131.425 65.5938 133C59.0466 137.501 52.5187 142.399 46.4062 147.531C36.8329 155.57 29.2317 163.421 24.3438 170.812C15.9815 183.457 16.0118 194.078 26.4375 201.75C32.7906 206.425 41.9169 208.472 53.875 208.438C63.25 208.41 73.3291 207.244 88.25 204.75C128.911 197.955 178.743 177.993 219 156.312C234.393 148.023 253.708 134.703 266.812 122.125C284.914 104.752 290.812 89.7333 280.25 78.9375C275.096 73.6696 260.084 71.7057 240.531 72.4062ZM235.857 87.0091C245.942 87.3638 253.388 88.9104 256.372 91.8871C264.402 99.8992 259.829 111.24 245.627 124.545C235.205 134.31 219.848 144.641 207.597 151.081C175.476 167.966 135.689 183.525 103.276 188.812C91.384 190.752 83.3588 191.669 75.9153 191.69C66.5031 191.717 59.3487 190.153 54.4264 186.617C46.475 180.905 46.4421 173.067 52.9272 163.495C56.7877 157.797 62.8151 151.703 70.4181 145.471C75.2849 141.483 80.5192 137.679 85.7352 134.179C87.5608 132.954 89.2366 131.867 90.7576 130.911C91.2897 130.576 92.5957 129.767 92.6816 129.716C92.8106 129.628 94.4934 128.517 95.2053 128.057C97.2401 126.741 99.5911 125.271 102.227 123.691C109.758 119.178 118.059 114.684 126.889 110.472C142.09 103.221 157.223 97.6348 171.766 94.3748C194.897 89.1897 219.05 86.418 235.857 87.0091Z" fill="#ebd5c8" fill-rule="evenodd" filter="url(#Filter)" opacity="1" stroke="none" vectornator:shadowAngle="3.29553" vectornator:shadowColor="#000000" vectornator:shadowOffset="0.872093" vectornator:shadowOpacity="0.141116" vectornator:shadowRadius="13.2752"/>
<path d="M246.094 81C257.742 81.4153 265.635 83.2572 268.625 86.2812C276.88 94.6299 272.686 106.821 256.438 122.25C245.312 132.815 228.265 144.727 213.5 152.594C174.049 173.614 129.749 190.228 95.4062 195.906C81.3863 198.224 72.6037 199.196 64.5312 199.219C53.8385 199.25 46.0634 197.417 40.8125 193.594C32.5485 187.577 32.0176 177.651 39.2576 166.82C43.4623 160.529 50.237 155.337 59.0312 148.031C64.2505 143.695 70.0473 139.355 76.3125 135.094C78.3032 133.74 80.2121 132.514 82 131.375C82.5174 131.045 84.0419 130.069 84.1562 130C84.4231 129.819 86.3949 128.5 87.0625 128.062C89.5181 126.453 92.1778 124.777 95 123.062C103.824 117.702 113.225 112.588 122.906 107.906C140.672 99.3161 157.691 93.0892 173.625 89.4688C199.785 83.5249 227.107 80.3231 246.094 81ZM249.685 78.0185C230.481 77.3338 195.027 83.0202 168.688 89.0049C152.572 92.6665 143.952 94.4549 126.039 103.116C116.291 107.83 78.0329 129.994 76.0235 131.361C69.7007 135.662 60.3008 142.81 55.0218 147.196C46.0717 154.631 40.8222 159.573 36.4784 166.071C28.6155 177.835 26.7802 187.903 36.1555 194.729C41.8642 198.885 50.3751 202.752 61.5105 202.719C69.7294 202.696 80.0505 202.529 94.1813 200.193C128.799 194.469 171.888 178.44 211.543 157.311C226.481 149.351 245.18 136.793 256.464 126.078C273.519 109.882 284.537 96.1583 279.078 86.004C274.275 77.0704 258.418 78.3299 249.685 78.0185Z" fill="#b89172" fill-rule="evenodd" opacity="1" stroke="none"/>
<path d="M233.844 85.0933C227.781 84.9139 220.857 85.2351 213.188 86.0223C186.498 88.7618 154.383 97.1261 134.219 106.522C111.464 117.124 86.754 131.416 70.125 144.517C48.2585 161.744 40.7718 176.234 52.8438 185.918C69.2519 199.08 109.718 192.007 165.469 170.745C223.984 148.429 259.872 124.488 261.688 100.545C262.44 90.6138 252.031 85.6315 233.844 85.0933ZM258.593 100.074C257.546 123.75 221.382 148.004 163.756 170.055C108.886 191.053 69.4034 197.785 53.9488 185.346C43.5873 177.006 54.0771 165.168 74.9182 148.693C91.3891 135.672 115.115 123.812 137.721 113.243C157.642 103.93 174.228 100.312 197.576 94.4138C220.925 88.5157 259.219 85.9205 258.593 100.074Z" fill="#5d433b" fill-rule="evenodd" filter="url(#Filter_2)" opacity="1" stroke="none" vectornator:shadowAngle="3.29553" vectornator:shadowColor="#000000" vectornator:shadowOffset="0.872093" vectornator:shadowOpacity="0.141116" vectornator:shadowRadius="13.2752"/>
<path d="M259.218 87.5352C261.25 85.9863 275.85 85.1015 267.051 101.633C264.239 106.918 263.01 110.289 262.416 107.999C261.822 105.708 266.02 98.477 265.365 95.8733C264.403 92.0463 257.185 89.0842 259.218 87.5352Z" fill="#d6a89a" fill-rule="evenodd" filter="url(#Filter_3)" opacity="0.467308" stroke="none" vectornator:shadowAngle="3.29553" vectornator:shadowColor="#000000" vectornator:shadowOffset="0.872093" vectornator:shadowOpacity="0.141116" vectornator:shadowRadius="13.2752"/>
<path d="M46.1933 164.968C43.2762 166.41 27.479 188.454 45.0529 193.425C50.6708 195.014 53.6601 196.921 53.1315 193.369C52.6028 189.817 44.5491 188.194 43.9266 184.19C43.0117 178.304 49.1105 163.526 46.1933 164.968Z" fill="#d6a89a" fill-rule="evenodd" filter="url(#Filter_4)" opacity="0.467308" stroke="none" vectornator:shadowAngle="3.29553" vectornator:shadowColor="#000000" vectornator:shadowOffset="0.872093" vectornator:shadowOpacity="0.141116" vectornator:shadowRadius="13.2752"/>
<path d="M104.575 190.4C122.859 186.919 152.102 176.931 154.988 175.828C157.405 174.904 201.086 157.279 206.647 154.515C212.208 151.752 230.356 140.681 218.513 148.807C206.67 156.932 155.028 178.522 155.028 178.522C155.028 178.522 125.519 190.149 96.736 193.945C67.9533 197.741 88.2458 193.508 104.575 190.4Z" fill="#bd9886" fill-rule="evenodd" filter="url(#Filter_5)" opacity="0.467308" stroke="none" vectornator:shadowAngle="3.29553" vectornator:shadowColor="#000000" vectornator:shadowOffset="0.872093" vectornator:shadowOpacity="0.141116" vectornator:shadowRadius="13.2752"/>
</g>
<g id="p-upper" vectornator:layerName="p upper">
<path d="M150 60C105.817 60 70 95.8172 70 140C70 151.885 72.6634 163.11 77.3125 173.25L225.781 114.5C215.124 82.8402 185.253 60 150 60Z" fill="#eed3be" fill-rule="evenodd" opacity="1" stroke="none"/>
</g>
<g id="b-lower" vectornator:layerName="b lower">
<g opacity="1">
<path d="M400 70C390 70 386.188 66.2564 377.25 66.0705C367.019 65.8576 352.308 71.9764 342.025 69.5018C330.613 66.7555 312.385 65.2085 304.304 64.8614C286.724 64.1062 270.137 69.05 252.683 69.1126C243.44 69.1458 234.742 66.3645 225.537 66.3975C217.537 66.4261 209.272 69.6431 201.174 69.4746C192.334 69.2907 183.615 67.0388 174.91 65.6668C167.084 64.4333 160 70 150 70L150 70L150 60L400 60L400 70" fill="#ddb289" fill-rule="evenodd" opacity="1" stroke="none"/>
<path d="M150 110C160 110 164.465 107.427 165.944 106.885C177.767 102.554 195.509 96.0114 207.313 95.9336C217.008 95.8697 228.957 99.6154 239.369 105.061C245.137 108.078 250.977 115.753 256.164 119.582C263.145 124.734 269.492 125.63 278.026 127.009C295.457 129.824 312.338 120.141 326.975 112.558C334.883 108.462 342.779 101.29 350 100C362.877 97.7001 370 110 400 110L400 110L400 90C390 90 382.618 85.9834 378.816 85.3693C371.951 84.2606 365.016 84.4921 357.898 85.8089C333.407 90.3393 316.794 102.741 291.275 99.8577C274.143 97.9217 258.007 91.0621 241.305 87.404C231.861 85.3358 224.065 80.8361 209.613 80.9449C196.296 81.0453 183.321 84.5328 174.237 86.2132C171.632 86.6952 160 90 150 90L150 110" fill="#b69682" fill-rule="evenodd" opacity="1" stroke="none"/>
<path d="M400 110C370 110 362.877 97.7001 350 100C342.779 101.29 334.883 108.462 326.975 112.558C312.338 120.141 295.457 129.824 278.026 127.009C269.492 125.63 261.635 122.654 254.655 117.501C249.467 113.673 245.137 108.078 239.369 105.061C228.957 99.6154 217.008 95.8697 207.313 95.9336C195.509 96.0114 177.767 102.554 165.944 106.885C164.465 107.427 160 110 150 110L150 140C170 140 188.679 124.82 198.491 126.053C207.217 127.15 216.656 132.433 224.241 136.58C231.474 140.534 242.032 145.808 259.496 147.315C276.961 148.823 289.554 144.833 297.953 142.629C306.352 140.426 325.929 135.358 337.691 134.886C351.888 134.316 380 140 400 140L400 110" fill="#c1b2a9" fill-rule="evenodd" opacity="1" stroke="none"/>
<path d="M400 190C380 190 377.682 185.979 365.417 181.001C355.689 177.053 344.362 172.761 333.887 172C321.405 171.093 306.828 175.552 295.792 181.322C287.193 185.819 277.322 191.21 267.513 192.48C252.385 194.44 236.701 186.619 223.96 178.454C205.763 166.795 196.013 174.721 185.156 180.368C178.721 183.715 170 190 150 190L150 170L150 170C160 170 169.311 168.03 174.535 165.83C189.64 159.467 215.977 156.701 226.978 159.503C237.978 162.306 246.887 167.24 254.729 169.697C265.61 173.106 283.993 170.262 292.962 167.273C302.755 164.009 322.249 156.979 332.481 157.928C342.565 158.864 358.844 161.032 368.618 164.094C380.398 167.785 380 170 400 170C400 170 380 170 400 170L400 190" fill="#bb9a7f" fill-rule="evenodd" opacity="1" stroke="none"/>
<path d="M400 210C390 210 385.123 206.1 376.23 203.146C367.337 200.193 359.31 197.261 347.637 196.396C324.304 194.666 296.768 206.682 274.725 212.595C247.411 219.922 230.281 202.309 214.241 197.185C201.234 193.03 183.533 198.056 175.133 202.65C166.732 207.244 170 210 150 210L150 220L400 220L400 210" fill="#f0c195" fill-rule="evenodd" opacity="1" stroke="none"/>
</g>
<g opacity="1">
<path d="M650 70C640 70 636.188 66.2564 627.25 66.0705C617.019 65.8576 602.308 71.9764 592.025 69.5018C580.613 66.7555 562.385 65.2085 554.304 64.8614C536.724 64.1062 520.137 69.05 502.683 69.1126C493.44 69.1458 484.742 66.3645 475.537 66.3975C467.537 66.4261 459.272 69.6431 451.174 69.4746C442.334 69.2907 433.615 67.0388 424.91 65.6668C417.084 64.4333 410 70 400 70L400 70L400 60L650 60L650 70" fill="#ddb289" fill-rule="evenodd" opacity="1" stroke="none"/>
<path d="M400 110C410 110 414.465 107.427 415.944 106.885C427.767 102.554 445.509 96.0114 457.313 95.9336C467.008 95.8697 478.957 99.6154 489.369 105.061C495.137 108.078 500.977 115.753 506.164 119.582C513.145 124.734 519.492 125.63 528.026 127.009C545.457 129.824 562.338 120.141 576.975 112.558C584.883 108.462 592.779 101.29 600 100C612.877 97.7001 620 110 650 110L650 110L650 90C640 90 632.618 85.9834 628.816 85.3693C621.951 84.2606 615.016 84.4921 607.898 85.8089C583.407 90.3393 566.794 102.741 541.275 99.8577C524.143 97.9217 508.007 91.0621 491.305 87.404C481.861 85.3358 474.065 80.8361 459.613 80.9449C446.296 81.0453 433.321 84.5328 424.237 86.2132C421.632 86.6952 410 90 400 90L400 110" fill="#b69682" fill-rule="evenodd" opacity="1" stroke="none"/>
<path d="M650 110C620 110 612.877 97.7001 600 100C592.779 101.29 584.883 108.462 576.975 112.558C562.338 120.141 545.457 129.824 528.026 127.009C519.492 125.63 511.635 122.654 504.655 117.501C499.467 113.673 495.137 108.078 489.369 105.061C478.957 99.6154 467.008 95.8697 457.313 95.9336C445.509 96.0114 427.767 102.554 415.944 106.885C414.465 107.427 410 110 400 110L400 140C420 140 438.679 124.82 448.491 126.053C457.217 127.15 466.656 132.433 474.241 136.58C481.474 140.534 492.032 145.808 509.496 147.315C526.961 148.823 539.554 144.833 547.953 142.629C556.352 140.426 575.929 135.358 587.691 134.886C601.888 134.316 630 140 650 140L650 110" fill="#c1b2a9" fill-rule="evenodd" opacity="1" stroke="none"/>
<path d="M650 190C630 190 627.682 185.979 615.417 181.001C605.689 177.053 594.362 172.761 583.887 172C571.405 171.093 556.828 175.552 545.792 181.322C537.193 185.819 527.322 191.21 517.513 192.48C502.385 194.44 486.701 186.619 473.96 178.454C455.763 166.795 446.013 174.721 435.156 180.368C428.721 183.715 420 190 400 190L400 170L400 170C410 170 419.311 168.03 424.535 165.83C439.64 159.467 465.977 156.701 476.978 159.503C487.978 162.306 496.887 167.24 504.729 169.697C515.61 173.106 533.993 170.262 542.962 167.273C552.755 164.009 572.249 156.979 582.481 157.928C592.565 158.864 608.844 161.032 618.618 164.094C630.398 167.785 630 170 650 170C650 170 630 170 650 170L650 190" fill="#bb9a7f" fill-rule="evenodd" opacity="1" stroke="none"/>
<path d="M650 210C640 210 635.123 206.1 626.23 203.146C617.337 200.193 609.31 197.261 597.637 196.396C574.304 194.666 546.768 206.682 524.725 212.595C497.411 219.922 480.281 202.309 464.241 197.185C451.234 193.03 433.533 198.056 425.133 202.65C416.732 207.244 420 210 400 210L400 220L650 220L650 210" fill="#f0c195" fill-rule="evenodd" opacity="1" stroke="none"/>
</g>
<g opacity="1">
<path d="M150 70C140 70 136.188 66.2564 127.25 66.0705C117.019 65.8576 102.308 71.9764 92.0251 69.5018C80.613 66.7555 62.3855 65.2085 54.3042 64.8614C36.7245 64.1062 20.1374 69.05 2.6835 69.1126C-6.55982 69.1458-15.2578 66.3645-24.4628 66.3975C-32.4634 66.4261-40.7283 69.6431-48.8265 69.4746C-57.6665 69.2907-66.3851 67.0388-75.0898 65.6668C-82.9158 64.4333-90 70-100 70L-100 70L-100 60L150 60L150 70" fill="#ddb289" fill-rule="evenodd" opacity="1" stroke="none"/>
<path d="M-100 110C-90 110-85.5349 107.427-84.0558 106.885C-72.2327 102.554-54.4907 96.0114-42.6872 95.9336C-32.9925 95.8697-21.0434 99.6154-10.6313 105.061C-4.86253 108.078 0.976652 115.753 6.16389 119.582C13.1448 124.734 19.4922 125.63 28.0258 127.009C45.4566 129.824 62.3376 120.141 76.9746 112.558C84.8826 108.462 92.7794 101.29 100 100C112.877 97.7001 120 110 150 110L150 110L150 90C140 90 132.618 85.9834 128.816 85.3693C121.951 84.2606 115.016 84.4921 107.898 85.8089C83.4067 90.3393 66.794 102.741 41.2746 99.8577C24.143 97.9217 8.0072 91.0621-8.6952 87.404C-18.1386 85.3358-25.9345 80.8361-40.3866 80.9449C-53.7038 81.0453-66.6786 84.5328-75.7629 86.2132C-78.3683 86.6952-90 90-100 90L-100 110" fill="#b69682" fill-rule="evenodd" opacity="1" stroke="none"/>
<path d="M150 110C120 110 112.877 97.7001 100 100C92.7794 101.29 84.8826 108.462 76.9746 112.558C62.3376 120.141 45.4566 129.824 28.0258 127.009C19.4922 125.63 11.6354 122.654 4.65453 117.501C-0.532715 113.673-4.86253 108.078-10.6313 105.061C-21.0434 99.6154-32.9925 95.8697-42.6872 95.9336C-54.4907 96.0114-72.2327 102.554-84.0558 106.885C-85.5349 107.427-90 110-100 110L-100 140C-80 140-61.3205 124.82-51.5087 126.053C-42.7834 127.15-33.3438 132.433-25.7593 136.58C-18.5261 140.534-7.96839 145.808 9.4964 147.315C26.9612 148.823 39.5538 144.833 47.9528 142.629C56.3519 140.426 75.9289 135.358 87.6905 134.886C101.888 134.316 130 140 150 140L150 110" fill="#c1b2a9" fill-rule="evenodd" opacity="1" stroke="none"/>
<path d="M150 190C130 190 127.682 185.979 115.417 181.001C105.689 177.053 94.3619 172.761 83.887 172C71.4048 171.093 56.8284 175.552 45.7925 181.322C37.1934 185.819 27.3224 191.21 17.513 192.48C2.3853 194.44-13.2985 186.619-26.04 178.454C-44.2367 166.795-53.9868 174.721-64.8441 180.368C-71.2785 183.715-80 190-100 190L-100 170L-100 170C-90 170-80.6887 168.03-75.4652 165.83C-60.3598 159.467-34.0225 156.701-23.0221 159.503C-12.0217 162.306-3.11283 167.24 4.72852 169.697C15.6103 173.106 33.9926 170.262 42.9619 167.273C52.7546 164.009 72.2485 156.979 82.4808 157.928C92.5654 158.864 108.844 161.032 118.618 164.094C130.398 167.785 130 170 150 170C150 170 130 170 150 170L150 190" fill="#bb9a7f" fill-rule="evenodd" opacity="1" stroke="none"/>
<path d="M150 210C140 210 135.123 206.1 126.23 203.146C117.337 200.193 109.31 197.261 97.6373 196.396C74.3038 194.666 46.7678 206.682 24.7247 212.595C-2.58908 219.922-19.719 202.309-35.7589 197.185C-48.7663 193.03-66.4673 198.056-74.8674 202.65C-83.2675 207.244-80 210-100 210L-100 220L150 220L150 210" fill="#f0c195" fill-rule="evenodd" opacity="1" stroke="none"/>
</g>
</g>
<g id="b-upper" vectornator:layerName="b upper">
<g opacity="1">
<path d="M400 70C390 70 386.188 66.2564 377.25 66.0705C367.019 65.8576 352.308 71.9764 342.025 69.5018C330.613 66.7555 312.385 65.2085 304.304 64.8614C286.724 64.1062 270.137 69.05 252.683 69.1126C243.44 69.1458 234.742 66.3645 225.537 66.3975C217.537 66.4261 209.272 69.6431 201.174 69.4746C192.334 69.2907 183.615 67.0388 174.91 65.6668C167.084 64.4333 160 70 150 70L150 70L150 60L400 60L400 70" fill="#ddb289" fill-rule="evenodd" opacity="1" stroke="none"/>
<path d="M150 110C160 110 164.465 107.427 165.944 106.885C177.767 102.554 195.509 96.0114 207.313 95.9336C217.008 95.8697 228.957 99.6154 239.369 105.061C245.137 108.078 250.977 115.753 256.164 119.582C263.145 124.734 269.492 125.63 278.026 127.009C295.457 129.824 312.338 120.141 326.975 112.558C334.883 108.462 342.779 101.29 350 100C362.877 97.7001 370 110 400 110L400 110L400 90C390 90 382.618 85.9834 378.816 85.3693C371.951 84.2606 365.016 84.4921 357.898 85.8089C333.407 90.3393 316.794 102.741 291.275 99.8577C274.143 97.9217 258.007 91.0621 241.305 87.404C231.861 85.3358 224.065 80.8361 209.613 80.9449C196.296 81.0453 183.321 84.5328 174.237 86.2132C171.632 86.6952 160 90 150 90L150 110" fill="#b69682" fill-rule="evenodd" opacity="1" stroke="none"/>
<path d="M400 110C370 110 362.877 97.7001 350 100C342.779 101.29 334.883 108.462 326.975 112.558C312.338 120.141 295.457 129.824 278.026 127.009C269.492 125.63 261.635 122.654 254.655 117.501C249.467 113.673 245.137 108.078 239.369 105.061C228.957 99.6154 217.008 95.8697 207.313 95.9336C195.509 96.0114 177.767 102.554 165.944 106.885C164.465 107.427 160 110 150 110L150 140C170 140 188.679 124.82 198.491 126.053C207.217 127.15 216.656 132.433 224.241 136.58C231.474 140.534 242.032 145.808 259.496 147.315C276.961 148.823 289.554 144.833 297.953 142.629C306.352 140.426 325.929 135.358 337.691 134.886C351.888 134.316 380 140 400 140L400 110" fill="#c1b2a9" fill-rule="evenodd" opacity="1" stroke="none"/>
<path d="M400 190C380 190 377.682 185.979 365.417 181.001C355.689 177.053 344.362 172.761 333.887 172C321.405 171.093 306.828 175.552 295.792 181.322C287.193 185.819 277.322 191.21 267.513 192.48C252.385 194.44 236.701 186.619 223.96 178.454C205.763 166.795 196.013 174.721 185.156 180.368C178.721 183.715 170 190 150 190L150 170L150 170C160 170 169.311 168.03 174.535 165.83C189.64 159.467 215.977 156.701 226.978 159.503C237.978 162.306 246.887 167.24 254.729 169.697C265.61 173.106 283.993 170.262 292.962 167.273C302.755 164.009 322.249 156.979 332.481 157.928C342.565 158.864 358.844 161.032 368.618 164.094C380.398 167.785 380 170 400 170C400 170 380 170 400 170L400 190" fill="#bb9a7f" fill-rule="evenodd" opacity="1" stroke="none"/>
<path d="M400 210C390 210 385.123 206.1 376.23 203.146C367.337 200.193 359.31 197.261 347.637 196.396C324.304 194.666 296.768 206.682 274.725 212.595C247.411 219.922 230.281 202.309 214.241 197.185C201.234 193.03 183.533 198.056 175.133 202.65C166.732 207.244 170 210 150 210L150 220L400 220L400 210" fill="#f0c195" fill-rule="evenodd" opacity="1" stroke="none"/>
</g>
<g opacity="1">
<path d="M650 70C640 70 636.188 66.2564 627.25 66.0705C617.019 65.8576 602.308 71.9764 592.025 69.5018C580.613 66.7555 562.385 65.2085 554.304 64.8614C536.724 64.1062 520.137 69.05 502.683 69.1126C493.44 69.1458 484.742 66.3645 475.537 66.3975C467.537 66.4261 459.272 69.6431 451.174 69.4746C442.334 69.2907 433.615 67.0388 424.91 65.6668C417.084 64.4333 410 70 400 70L400 70L400 60L650 60L650 70" fill="#ddb289" fill-rule="evenodd" opacity="1" stroke="none"/>
<path d="M400 110C410 110 414.465 107.427 415.944 106.885C427.767 102.554 445.509 96.0114 457.313 95.9336C467.008 95.8697 478.957 99.6154 489.369 105.061C495.137 108.078 500.977 115.753 506.164 119.582C513.145 124.734 519.492 125.63 528.026 127.009C545.457 129.824 562.338 120.141 576.975 112.558C584.883 108.462 592.779 101.29 600 100C612.877 97.7001 620 110 650 110L650 110L650 90C640 90 632.618 85.9834 628.816 85.3693C621.951 84.2606 615.016 84.4921 607.898 85.8089C583.407 90.3393 566.794 102.741 541.275 99.8577C524.143 97.9217 508.007 91.0621 491.305 87.404C481.861 85.3358 474.065 80.8361 459.613 80.9449C446.296 81.0453 433.321 84.5328 424.237 86.2132C421.632 86.6952 410 90 400 90L400 110" fill="#b69682" fill-rule="evenodd" opacity="1" stroke="none"/>
<path d="M650 110C620 110 612.877 97.7001 600 100C592.779 101.29 584.883 108.462 576.975 112.558C562.338 120.141 545.457 129.824 528.026 127.009C519.492 125.63 511.635 122.654 504.655 117.501C499.467 113.673 495.137 108.078 489.369 105.061C478.957 99.6154 467.008 95.8697 457.313 95.9336C445.509 96.0114 427.767 102.554 415.944 106.885C414.465 107.427 410 110 400 110L400 140C420 140 438.679 124.82 448.491 126.053C457.217 127.15 466.656 132.433 474.241 136.58C481.474 140.534 492.032 145.808 509.496 147.315C526.961 148.823 539.554 144.833 547.953 142.629C556.352 140.426 575.929 135.358 587.691 134.886C601.888 134.316 630 140 650 140L650 110" fill="#c1b2a9" fill-rule="evenodd" opacity="1" stroke="none"/>
<path d="M650 190C630 190 627.682 185.979 615.417 181.001C605.689 177.053 594.362 172.761 583.887 172C571.405 171.093 556.828 175.552 545.792 181.322C537.193 185.819 527.322 191.21 517.513 192.48C502.385 194.44 486.701 186.619 473.96 178.454C455.763 166.795 446.013 174.721 435.156 180.368C428.721 183.715 420 190 400 190L400 170L400 170C410 170 419.311 168.03 424.535 165.83C439.64 159.467 465.977 156.701 476.978 159.503C487.978 162.306 496.887 167.24 504.729 169.697C515.61 173.106 533.993 170.262 542.962 167.273C552.755 164.009 572.249 156.979 582.481 157.928C592.565 158.864 608.844 161.032 618.618 164.094C630.398 167.785 630 170 650 170C650 170 630 170 650 170L650 190" fill="#bb9a7f" fill-rule="evenodd" opacity="1" stroke="none"/>
<path d="M650 210C640 210 635.123 206.1 626.23 203.146C617.337 200.193 609.31 197.261 597.637 196.396C574.304 194.666 546.768 206.682 524.725 212.595C497.411 219.922 480.281 202.309 464.241 197.185C451.234 193.03 433.533 198.056 425.133 202.65C416.732 207.244 420 210 400 210L400 220L650 220L650 210" fill="#f0c195" fill-rule="evenodd" opacity="1" stroke="none"/>
</g>
<g opacity="1">
<path d="M150 70C140 70 136.188 66.2564 127.25 66.0705C117.019 65.8576 102.308 71.9764 92.0251 69.5018C80.613 66.7555 62.3855 65.2085 54.3042 64.8614C36.7245 64.1062 20.1374 69.05 2.6835 69.1126C-6.55982 69.1458-15.2578 66.3645-24.4628 66.3975C-32.4634 66.4261-40.7283 69.6431-48.8265 69.4746C-57.6665 69.2907-66.3851 67.0388-75.0898 65.6668C-82.9158 64.4333-90 70-100 70L-100 70L-100 60L150 60L150 70" fill="#ddb289" fill-rule="evenodd" opacity="1" stroke="none"/>
<path d="M-100 110C-90 110-85.5349 107.427-84.0558 106.885C-72.2327 102.554-54.4907 96.0114-42.6872 95.9336C-32.9925 95.8697-21.0434 99.6154-10.6313 105.061C-4.86253 108.078 0.976652 115.753 6.16389 119.582C13.1448 124.734 19.4922 125.63 28.0258 127.009C45.4566 129.824 62.3376 120.141 76.9746 112.558C84.8826 108.462 92.7794 101.29 100 100C112.877 97.7001 120 110 150 110L150 110L150 90C140 90 132.618 85.9834 128.816 85.3693C121.951 84.2606 115.016 84.4921 107.898 85.8089C83.4067 90.3393 66.794 102.741 41.2746 99.8577C24.143 97.9217 8.0072 91.0621-8.6952 87.404C-18.1386 85.3358-25.9345 80.8361-40.3866 80.9449C-53.7038 81.0453-66.6786 84.5328-75.7629 86.2132C-78.3683 86.6952-90 90-100 90L-100 110" fill="#b69682" fill-rule="evenodd" opacity="1" stroke="none"/>
<path d="M150 110C120 110 112.877 97.7001 100 100C92.7794 101.29 84.8826 108.462 76.9746 112.558C62.3376 120.141 45.4566 129.824 28.0258 127.009C19.4922 125.63 11.6354 122.654 4.65453 117.501C-0.532715 113.673-4.86253 108.078-10.6313 105.061C-21.0434 99.6154-32.9925 95.8697-42.6872 95.9336C-54.4907 96.0114-72.2327 102.554-84.0558 106.885C-85.5349 107.427-90 110-100 110L-100 140C-80 140-61.3205 124.82-51.5087 126.053C-42.7834 127.15-33.3438 132.433-25.7593 136.58C-18.5261 140.534-7.96839 145.808 9.4964 147.315C26.9612 148.823 39.5538 144.833 47.9528 142.629C56.3519 140.426 75.9289 135.358 87.6905 134.886C101.888 134.316 130 140 150 140L150 110" fill="#c1b2a9" fill-rule="evenodd" opacity="1" stroke="none"/>
<path d="M150 190C130 190 127.682 185.979 115.417 181.001C105.689 177.053 94.3619 172.761 83.887 172C71.4048 171.093 56.8284 175.552 45.7925 181.322C37.1934 185.819 27.3224 191.21 17.513 192.48C2.3853 194.44-13.2985 186.619-26.04 178.454C-44.2367 166.795-53.9868 174.721-64.8441 180.368C-71.2785 183.715-80 190-100 190L-100 170L-100 170C-90 170-80.6887 168.03-75.4652 165.83C-60.3598 159.467-34.0225 156.701-23.0221 159.503C-12.0217 162.306-3.11283 167.24 4.72852 169.697C15.6103 173.106 33.9926 170.262 42.9619 167.273C52.7546 164.009 72.2485 156.979 82.4808 157.928C92.5654 158.864 108.844 161.032 118.618 164.094C130.398 167.785 130 170 150 170C150 170 130 170 150 170L150 190" fill="#bb9a7f" fill-rule="evenodd" opacity="1" stroke="none"/>
<path d="M150 210C140 210 135.123 206.1 126.23 203.146C117.337 200.193 109.31 197.261 97.6373 196.396C74.3038 194.666 46.7678 206.682 24.7247 212.595C-2.58908 219.922-19.719 202.309-35.7589 197.185C-48.7663 193.03-66.4673 198.056-74.8674 202.65C-83.2675 207.244-80 210-100 210L-100 220L150 220L150 210" fill="#f0c195" fill-rule="evenodd" opacity="1" stroke="none"/>
</g>
</g>
<g id="guide" vectornator:layerName="guide">
<path d="M0 0L300 0L300 290L0 290L0 0Z" fill="#000000" fill-opacity="0.152836" fill-rule="evenodd" opacity="0" stroke="none"/>
<path d="M150 60L400 60L400 220L150 220L150 60Z" fill="#000000" fill-opacity="0.152836" fill-rule="evenodd" opacity="1" stroke="none"/>
</g>
</svg>
