<?xml version="1.0" encoding="UTF-8" standalone="no"?>
<!DOCTYPE svg PUBLIC "-//W3C//DTD SVG 1.1//EN" "http://www.w3.org/Graphics/SVG/1.1/DTD/svg11.dtd">

<!-- Created with Vectornator (http://vectornator.io/) -->
<svg height="100%" stroke-miterlimit="10" style="fill-rule:nonzero;clip-rule:evenodd;stroke-linecap:round;stroke-linejoin:round;" version="1.1" viewBox="0 0 2388 1668" width="100%" xml:space="preserve" xmlns="http://www.w3.org/2000/svg" xmlns:vectornator="http://vectornator.io" xmlns:xlink="http://www.w3.org/1999/xlink">
<metadata>
<vectornator:setting key="IsTimeLapseWatermarkDisabled" value="false"/>
<vectornator:setting key="UndoHistoryDisabled" value="true"/>
<vectornator:setting key="VNDimensionsVisible" value="true"/>
<vectornator:setting key="VNSnapToGuides" value="false"/>
<vectornator:setting key="WDCMYKEnabledKey" value="false"/>
<vectornator:setting key="WDDisplayWhiteBackground" value="true"/>
<vectornator:setting key="WDDynamicGuides" value="true"/>
<vectornator:setting key="WDGuidesVisible" value="true"/>
<vectornator:setting key="WDIsolateActiveLayer" value="false"/>
<vectornator:setting key="WDOutlineMode" value="false"/>
<vectornator:setting key="WDRulersVisible" value="true"/>
<vectornator:setting key="WDSnapToEdges" value="false"/>
<vectornator:setting key="WDSnapToGrid" value="false"/>
<vectornator:setting key="WDSnapToPoints" value="false"/>
<vectornator:setting key="WDUnits" value="Points"/>
</metadata>
<defs>
<filter color-interpolation-filters="sRGB" filterUnits="userSpaceOnUse" height="764.056" id="Filter" width="1136.79" x="0" y="0">
<feDropShadow dx="-0.861781" dy="-0.133718" flood-color="#000000" flood-opacity="0.141116" height="764.056" stdDeviation="6.6376" width="1136.79"/>
</filter>
<filter color-interpolation-filters="sRGB" filterUnits="userSpaceOnUse" height="603.596" id="Filter_2" width="912.48" x="0" y="0">
<feDropShadow dx="-0.861781" dy="-0.133718" flood-color="#000000" flood-opacity="0.141116" height="603.596" stdDeviation="6.6376" width="912.48"/>
</filter>
<filter color-interpolation-filters="sRGB" filterUnits="userSpaceOnUse" height="136.795" id="Filter_3" width="43.4924" x="292.945" y="18.5822">
<feDropShadow dx="-0.861781" dy="-0.133718" flood-color="#000000" flood-opacity="0.141116" height="136.795" stdDeviation="6.6376" width="43.4924"/>
</filter>
<filter color-interpolation-filters="sRGB" filterUnits="userSpaceOnUse" height="191.284" id="Filter_4" width="61.746" x="0" y="131.403">
<feDropShadow dx="-0.861781" dy="-0.133718" flood-color="#000000" flood-opacity="0.141116" height="191.284" stdDeviation="6.6376" width="61.746"/>
</filter>
<filter color-interpolation-filters="sRGB" filterUnits="userSpaceOnUse" height="250.276" id="Filter_5" width="595.919" x="0" y="96.3764">
<feDropShadow dx="-0.861781" dy="-0.133718" flood-color="#000000" flood-opacity="0.141116" height="250.276" stdDeviation="6.6376" width="595.919"/>
</filter>
</defs>
<g id="p-lower" vectornator:layerName="p lower">
<path d="M150 0L150 0C232.843 0 300 67.1572 300 150L300 150C300 232.843 232.843 300 150 300L150 300C67.1569 300 0 232.843 0 150L0 150C0 67.1572 67.1569 0 150 0Z" fill="#eed3be" fill-rule="evenodd" opacity="1" stroke="none"/>
</g>
<g id="rings" vectornator:layerName="rings">
<g opacity="1">
<path d="M286.382 32.178C260.023 30.9997 227.017 34.6869 194.621 42.5386C169.272 48.682 142.328 60.8169 114.855 77.3411C98.9045 86.9356 83.7507 97.3907 69.9061 107.993C65.0596 111.705 60.7542 115.208 56.985 118.329C55.665 119.423 52.5255 122.076 52.3197 122.256C52.1961 122.349 49.814 124.215 48.8293 125.008C46.0175 127.269 42.8568 129.876 39.4632 132.793C29.7668 141.128 20.0153 150.278 10.7731 159.962C-3.70209 175.132-15.4947 190.181-23.5553 204.651C-37.3457 229.408-39.4701 251.144-27.0545 268.234C-19.4888 278.649-7.66897 284.056 8.37218 285.584C20.9485 286.779 34.7009 285.74 55.2163 282.63C111.122 274.158 182.01 239.97 240.408 200.985C262.738 186.081 291.352 161.406 311.487 137.42C339.301 104.291 350.271 74.3484 338.309 50.8478C332.472 39.3804 312.743 33.3567 286.382 32.178ZM277.139 61.4333C290.589 63.5062 300.258 67.6654 303.652 74.1548C312.786 91.6213 304.342 114.215 282.587 139.542C266.622 158.13 243.925 177.218 226.185 188.758C179.673 219.017 123.152 245.538 78.613 252.026C62.272 254.407 51.3243 255.211 41.3393 254.26C28.7133 253.057 19.439 248.902 13.5596 241.009C4.06225 228.259 5.61588 212.217 16.2627 193.498C22.6007 182.355 31.9249 170.691 43.3898 158.955C50.7285 151.445 58.5224 144.36 66.2298 137.896C68.9274 135.633 71.396 133.633 73.6304 131.88C74.4121 131.265 76.3282 129.785 76.4538 129.692C76.6447 129.529 79.1276 127.48 80.1759 126.634C83.1726 124.213 86.6246 121.52 90.4811 118.639C101.499 110.411 113.546 102.324 126.244 94.8854C148.105 82.0794 169.535 72.6708 189.7 67.943C221.772 60.4235 254.723 57.9786 277.139 61.4333Z" fill="#ebd5c8" fill-rule="evenodd" filter="url(#Filter)" opacity="1" stroke="none" vectornator:shadowAngle="3.29553" vectornator:shadowColor="#000000" vectornator:shadowOffset="0.872093" vectornator:shadowOpacity="0.141116" vectornator:shadowRadius="13.2752"/>
<path d="M292.09 50.5053C307.624 52.911 317.832 57.7342 321.224 64.3211C330.591 82.5065 322.483 106.891 297.551 136.29C280.479 156.422 255.193 178.518 233.792 192.643C176.608 230.383 113.821 258.459 66.6146 265.49C47.3432 268.36 35.3688 269.176 24.54 268.144C10.1962 266.779 0.144448 261.99-6.117 253.466C-15.9714 240.051-14.6599 219.67-2.74415 198.475C4.17618 186.165 14.3185 176.446 27.5997 162.672C35.4819 154.497 44.1394 146.391 53.4087 138.509C56.354 136.005 59.1635 133.751 61.793 131.659C62.5541 131.053 64.7972 129.26 64.9645 129.134C65.3593 128.799 68.272 126.364 69.2565 125.557C72.8771 122.593 76.7851 119.519 80.9189 116.386C93.8433 106.598 107.491 97.3897 121.427 89.1029C146.999 73.9 171.089 63.4323 193.192 58.153C229.481 49.4855 266.769 46.5839 292.09 50.5053ZM297.513 44.8844C271.902 40.9181 223.204 47.8172 186.667 56.5443C164.311 61.8836 152.388 64.3914 126.604 79.7204C112.572 88.0637 56.7552 128.304 53.7822 130.832C44.4274 138.788 30.3663 152.158 22.3938 160.428C8.87733 174.445 0.83104 183.856-6.31801 196.571C-19.2592 219.592-23.7724 239.947-12.5928 255.167C-5.78536 264.433 4.83835 273.482 19.7762 274.902C30.8013 275.953 44.6746 276.99 64.0983 274.098C111.683 267.01 172.727 239.969 230.206 202.033C251.858 187.741 279.491 164.544 296.806 144.126C322.976 113.265 340.547 86.6566 335.297 65.1503C330.678 46.2293 309.159 46.6882 297.513 44.8844Z" fill="#b89172" fill-rule="evenodd" opacity="1" stroke="none"/>
<path d="M274.83 57.2444C266.737 56.0674 257.387 55.7997 246.944 56.3859C210.597 58.426 165.83 71.2505 136.878 87.7823C104.205 106.436 68.1591 132.378 43.1913 156.963C10.3596 189.291-2.63281 217.94 11.5801 239.367C30.8981 268.49 86.5996 259.424 165.688 223.366C248.698 185.521 301.7 141.328 309.015 92.5802C312.048 72.36 299.107 60.7751 274.83 57.2444ZM304.961 91.203C298.731 139.508 245.296 184.304 163.532 221.725C85.6785 257.36 31.3653 265.861 13.1783 238.344C0.985025 219.896 17.4636 197.075 48.7671 166.148C73.5066 141.706 107.737 120.608 140.204 102.002C168.813 85.6076 191.791 80.4203 224.299 71.4706C256.81 62.5213 308.686 62.3266 304.961 91.203Z" fill="#5d433b" fill-rule="evenodd" filter="url(#Filter_2)" opacity="1" stroke="none" vectornator:shadowAngle="3.29553" vectornator:shadowColor="#000000" vectornator:shadowOffset="0.872093" vectornator:shadowOpacity="0.141116" vectornator:shadowRadius="13.2752"/>
<path d="M308.355 65.6304C311.396 62.7325 331.153 62.8724 315.984 95.5228C311.137 105.961 308.802 112.694 308.472 107.929C308.142 103.162 315.245 88.9275 314.898 83.5124C314.388 75.5533 305.314 68.5283 308.355 65.6304Z" fill="#d6a89a" fill-rule="evenodd" filter="url(#Filter_3)" opacity="0.467308" stroke="none" vectornator:shadowAngle="3.29553" vectornator:shadowColor="#000000" vectornator:shadowOffset="0.872093" vectornator:shadowOpacity="0.141116" vectornator:shadowRadius="13.2752"/>
<path d="M6.93322 195.612C2.72783 198.173-22.9477 241.168-0.396747 253.687C6.8122 257.689 10.4317 261.99 10.447 254.651C10.4621 247.313-0.00595704 242.916-0.0244452 234.64C-0.0513699 222.475 11.1387 193.051 6.93322 195.612Z" fill="#d6a89a" fill-rule="evenodd" filter="url(#Filter_4)" opacity="0.467308" stroke="none" vectornator:shadowAngle="3.29553" vectornator:shadowColor="#000000" vectornator:shadowOffset="0.872093" vectornator:shadowOpacity="0.141116" vectornator:shadowRadius="13.2752"/>
<path d="M80.0311 255.448C105.257 250.768 146.504 234.238 150.599 232.366C154.028 230.799 216.191 200.571 224.211 195.658C232.231 190.747 258.822 170.519 241.285 185.564C223.749 200.606 150.103 237.884 150.103 237.884C150.103 237.884 108.165 257.733 68.7974 261.655C29.4298 265.577 57.5022 259.627 80.0311 255.448Z" fill="#bd9886" fill-rule="evenodd" filter="url(#Filter_5)" opacity="0.467308" stroke="none" vectornator:shadowAngle="3.29553" vectornator:shadowColor="#000000" vectornator:shadowOffset="0.872093" vectornator:shadowOpacity="0.141116" vectornator:shadowRadius="13.2752"/>
</g>
</g>
<g id="p-upper" vectornator:layerName="p upper">
<path d="M150 0C67.1569 0 0 67.1572 0 150C0 172.284 4.99387 193.331 13.7109 212.344L292.089 102.188C272.107 42.8254 216.099 0 150 0Z" fill="#eed3be" fill-rule="evenodd" opacity="1" stroke="none"/>
</g>
<g id="b-lower" vectornator:layerName="b lower">
<g opacity="1">
<path d="M550 18.75C534 18.75 527.901 11.7308 513.6 11.3822C497.23 10.983 473.693 22.4558 457.24 17.8159C438.981 12.6666 409.816 9.76594 396.886 9.11512C368.758 7.69913 342.219 16.9688 314.293 17.0861C299.504 17.1484 285.587 11.9334 270.859 11.9953C258.059 12.0489 244.835 18.0808 231.878 17.7649C217.734 17.4201 203.784 13.1978 189.856 10.6253C177.334 8.31243 166 18.75 150 18.75L150 18.75L150 0L550 0L550 18.75" fill="#ddb289" fill-rule="evenodd" opacity="1" stroke="none"/>
<path d="M150 93.75C166 93.75 173.144 88.9256 175.51 87.9094C194.427 79.7888 222.814 67.5214 241.701 67.3755C257.213 67.2557 276.331 74.2789 292.99 84.4894C302.219 90.1463 311.563 104.537 319.862 111.716C331.032 121.376 341.187 123.056 354.842 125.642C382.731 130.92 409.741 112.764 433.16 98.5462C445.813 90.8662 458.446 77.4188 470 75C490.603 70.6877 502 93.75 550 93.75L550 93.75L550 56.25C534 56.25 522.189 48.7189 516.106 47.5674C505.122 45.4886 494.026 45.9227 482.637 48.3917C443.451 56.8862 416.87 80.1394 376.04 74.7332C348.629 71.1032 322.811 58.2414 296.088 51.3825C280.978 47.5046 268.504 39.0677 245.381 39.2717C224.074 39.4599 203.314 45.999 188.779 49.1498C184.611 50.0535 166 56.25 150 56.25L150 93.75" fill="#b69682" fill-rule="evenodd" opacity="1" stroke="none"/>
<path d="M550 93.75C502 93.75 490.603 70.6877 470 75C458.446 77.4188 445.813 90.8662 433.16 98.5462C409.741 112.764 382.731 130.92 354.842 125.642C341.187 123.056 328.616 117.476 317.448 107.814C309.147 100.637 302.219 90.1463 292.99 84.4894C276.331 74.2789 257.213 67.2557 241.701 67.3755C222.814 67.5214 194.427 79.7888 175.51 87.9094C173.144 88.9256 166 93.75 150 93.75L150 150C182 150 211.886 121.537 227.586 123.849C241.547 125.906 256.65 135.812 268.786 143.588C280.358 151.001 297.251 160.89 325.194 163.716C353.138 166.543 373.286 159.062 386.725 154.929C400.163 150.799 431.486 141.296 450.306 140.411C473.021 139.342 518 150 550 150L550 93.75" fill="#c1b2a9" fill-rule="evenodd" opacity="1" stroke="none"/>
<path d="M550 243.75C518 243.75 514.291 236.211 494.667 226.877C479.102 219.474 460.979 211.427 444.219 210C424.248 208.299 400.925 216.66 383.267 227.479C369.509 235.911 353.715 246.019 338.021 248.4C313.816 252.075 288.722 237.411 268.336 222.101C239.221 200.241 223.621 215.102 206.25 225.69C195.954 231.966 182 243.75 150 243.75L150 206.25L150 206.25C166 206.25 180.898 202.556 189.256 198.431C213.424 186.501 255.563 181.314 273.165 186.568C290.765 191.824 305.019 201.075 317.566 205.682C334.976 212.074 364.389 206.741 378.739 201.137C394.408 195.017 425.598 181.836 441.97 183.615C458.104 185.37 484.15 189.435 499.789 195.176C518.637 202.097 518 206.25 550 206.25C550 206.25 518 206.25 550 206.25L550 243.75" fill="#bb9a7f" fill-rule="evenodd" opacity="1" stroke="none"/>
<path d="M550 281.25C534 281.25 526.197 273.938 511.968 268.399C497.739 262.862 484.896 257.364 466.219 255.742C428.886 252.499 384.829 275.029 349.56 286.116C305.858 299.854 278.45 266.829 252.786 257.222C231.974 249.431 203.653 258.855 190.213 267.469C176.771 276.083 182 281.25 150 281.25L150 300L550 300L550 281.25" fill="#f0c195" fill-rule="evenodd" opacity="1" stroke="none"/>
</g>
<g opacity="1">
<path d="M950 18.75C934 18.75 927.901 11.7308 913.6 11.3822C897.23 10.983 873.693 22.4558 857.24 17.8159C838.981 12.6666 809.816 9.76594 796.886 9.11512C768.758 7.69913 742.219 16.9688 714.293 17.0861C699.504 17.1484 685.587 11.9334 670.859 11.9953C658.059 12.0489 644.835 18.0808 631.878 17.7649C617.734 17.4201 603.784 13.1978 589.856 10.6253C577.334 8.31243 566 18.75 550 18.75L550 18.75L550 0L950 0L950 18.75" fill="#ddb289" fill-rule="evenodd" opacity="1" stroke="none"/>
<path d="M550 93.75C566 93.75 573.144 88.9256 575.51 87.9094C594.427 79.7888 622.814 67.5214 641.701 67.3755C657.213 67.2557 676.331 74.2789 692.99 84.4894C702.219 90.1463 711.563 104.537 719.862 111.716C731.032 121.376 741.187 123.056 754.842 125.642C782.731 130.92 809.741 112.764 833.16 98.5462C845.813 90.8662 858.446 77.4188 870 75C890.603 70.6877 902 93.75 950 93.75L950 93.75L950 56.25C934 56.25 922.189 48.7189 916.106 47.5674C905.122 45.4886 894.026 45.9227 882.637 48.3917C843.451 56.8862 816.87 80.1394 776.04 74.7332C748.629 71.1032 722.811 58.2414 696.088 51.3825C680.978 47.5046 668.504 39.0677 645.381 39.2717C624.074 39.4599 603.314 45.999 588.779 49.1498C584.611 50.0535 566 56.25 550 56.25L550 93.75" fill="#b69682" fill-rule="evenodd" opacity="1" stroke="none"/>
<path d="M950 93.75C902 93.75 890.603 70.6877 870 75C858.446 77.4188 845.813 90.8662 833.16 98.5462C809.741 112.764 782.731 130.92 754.842 125.642C741.187 123.056 728.616 117.476 717.448 107.814C709.147 100.637 702.219 90.1463 692.99 84.4894C676.331 74.2789 657.213 67.2557 641.701 67.3755C622.814 67.5214 594.427 79.7888 575.51 87.9094C573.144 88.9256 566 93.75 550 93.75L550 150C582 150 611.886 121.537 627.586 123.849C641.547 125.906 656.65 135.812 668.786 143.588C680.358 151.001 697.251 160.89 725.194 163.716C753.138 166.543 773.286 159.062 786.725 154.929C800.163 150.799 831.486 141.296 850.306 140.411C873.021 139.342 918 150 950 150L950 93.75" fill="#c1b2a9" fill-rule="evenodd" opacity="1" stroke="none"/>
<path d="M950 243.75C918 243.75 914.291 236.211 894.667 226.877C879.102 219.474 860.979 211.427 844.219 210C824.248 208.299 800.925 216.66 783.267 227.479C769.509 235.911 753.715 246.019 738.021 248.4C713.816 252.075 688.722 237.411 668.336 222.101C639.221 200.241 623.621 215.102 606.25 225.69C595.954 231.966 582 243.75 550 243.75L550 206.25L550 206.25C566 206.25 580.898 202.556 589.256 198.431C613.424 186.501 655.563 181.314 673.165 186.568C690.765 191.824 705.019 201.075 717.566 205.682C734.976 212.074 764.389 206.741 778.739 201.137C794.408 195.017 825.598 181.836 841.97 183.615C858.104 185.37 884.15 189.435 899.789 195.176C918.637 202.097 918 206.25 950 206.25C950 206.25 918 206.25 950 206.25L950 243.75" fill="#bb9a7f" fill-rule="evenodd" opacity="1" stroke="none"/>
<path d="M950 281.25C934 281.25 926.197 273.938 911.968 268.399C897.739 262.862 884.896 257.364 866.219 255.742C828.886 252.499 784.829 275.029 749.56 286.116C705.858 299.854 678.45 266.829 652.786 257.222C631.974 249.431 603.653 258.855 590.213 267.469C576.771 276.083 582 281.25 550 281.25L550 300L950 300L950 281.25" fill="#f0c195" fill-rule="evenodd" opacity="1" stroke="none"/>
</g>
<g opacity="1">
<path d="M150 18.75C134 18.75 127.901 11.7308 113.6 11.3822C97.2304 10.983 73.6928 22.4558 57.24 17.8159C38.9808 12.6666 9.81602 9.76594-3.11362 9.11512C-31.2416 7.69913-57.7808 16.9688-85.7072 17.0861C-100.496 17.1484-114.413 11.9334-129.141 11.9953C-141.941 12.0489-155.165 18.0808-168.122 17.7649C-182.266 17.4201-196.216 13.1978-210.144 10.6253C-222.666 8.31243-234 18.75-250 18.75L-250 18.75L-250 0L150 0L150 18.75" fill="#ddb289" fill-rule="evenodd" opacity="1" stroke="none"/>
<path d="M-250 93.75C-234 93.75-226.856 88.9256-224.49 87.9094C-205.573 79.7888-177.186 67.5214-158.299 67.3755C-142.787 67.2557-123.669 74.2789-107.01 84.4894C-97.7808 90.1463-88.4368 104.537-80.1376 111.716C-68.968 121.376-58.8128 123.056-45.1584 125.642C-17.2688 130.92 9.74082 112.764 33.16 98.5462C45.8128 90.8662 58.4464 77.4188 70 75C90.6032 70.6877 102 93.75 150 93.75L150 93.75L150 56.25C134 56.25 122.189 48.7189 116.106 47.5674C105.122 45.4886 94.0256 45.9227 82.6368 48.3917C43.4512 56.8862 16.8704 80.1394-23.96 74.7332C-51.3712 71.1032-77.1888 58.2414-103.912 51.3825C-119.022 47.5046-131.496 39.0677-154.619 39.2717C-175.926 39.4599-196.686 45.999-211.221 49.1498C-215.389 50.0535-234 56.25-250 56.25L-250 93.75" fill="#b69682" fill-rule="evenodd" opacity="1" stroke="none"/>
<path d="M150 93.75C102 93.75 90.6032 70.6877 70 75C58.4464 77.4188 45.8128 90.8662 33.16 98.5462C9.74082 112.764-17.2688 130.92-45.1584 125.642C-58.8128 123.056-71.384 117.476-82.552 107.814C-90.8528 100.637-97.7808 90.1463-107.01 84.4894C-123.669 74.2789-142.787 67.2557-158.299 67.3755C-177.186 67.5214-205.573 79.7888-224.49 87.9094C-226.856 88.9256-234 93.75-250 93.75L-250 150C-218 150-188.114 121.537-172.414 123.849C-158.453 125.906-143.35 135.812-131.214 143.588C-119.642 151.001-102.749 160.89-74.8064 163.716C-46.8624 166.543-26.7136 159.062-13.2752 154.929C0.163184 150.799 31.4864 141.296 50.3056 140.411C73.0208 139.342 118 150 150 150L150 93.75" fill="#c1b2a9" fill-rule="evenodd" opacity="1" stroke="none"/>
<path d="M150 243.75C118 243.75 114.291 236.211 94.6672 226.877C79.1024 219.474 60.9792 211.427 44.2192 210C24.248 208.299 0.924805 216.66-16.7328 227.479C-30.4912 235.911-46.2848 246.019-61.9792 248.4C-86.184 252.075-111.278 237.411-131.664 222.101C-160.779 200.241-176.379 215.102-193.75 225.69C-204.046 231.966-218 243.75-250 243.75L-250 206.25L-250 206.25C-234 206.25-219.102 202.556-210.744 198.431C-186.576 186.501-144.437 181.314-126.835 186.568C-109.235 191.824-94.9808 201.075-82.4336 205.682C-65.024 212.074-35.6112 206.741-21.2608 201.137C-5.59199 195.017 25.5984 181.836 41.9696 183.615C58.104 185.37 84.1504 189.435 99.7888 195.176C118.637 202.097 118 206.25 150 206.25C150 206.25 118 206.25 150 206.25L150 243.75" fill="#bb9a7f" fill-rule="evenodd" opacity="1" stroke="none"/>
<path d="M150 281.25C134 281.25 126.197 273.938 111.968 268.399C97.7392 262.862 84.896 257.364 66.2192 255.742C28.8864 252.499-15.1712 275.029-50.44 286.116C-94.1424 299.854-121.55 266.829-147.214 257.222C-168.026 249.431-196.347 258.855-209.787 267.469C-223.229 276.083-218 281.25-250 281.25L-250 300L150 300L150 281.25" fill="#f0c195" fill-rule="evenodd" opacity="1" stroke="none"/>
</g>
</g>
<g id="b-upper" vectornator:layerName="b upper">
<g opacity="1">
<path d="M550 18.75C534 18.75 527.901 11.7308 513.6 11.3822C497.23 10.983 473.693 22.4558 457.24 17.8159C438.981 12.6666 409.816 9.76594 396.886 9.11512C368.758 7.69913 342.219 16.9688 314.293 17.0861C299.504 17.1484 285.587 11.9334 270.859 11.9953C258.059 12.0489 244.835 18.0808 231.878 17.7649C217.734 17.4201 203.784 13.1978 189.856 10.6253C177.334 8.31243 166 18.75 150 18.75L150 18.75L150 0L550 0L550 18.75" fill="#ddb289" fill-rule="evenodd" opacity="1" stroke="none"/>
<path d="M150 93.75C166 93.75 173.144 88.9256 175.51 87.9094C194.427 79.7888 222.814 67.5214 241.701 67.3755C257.213 67.2557 276.331 74.2789 292.99 84.4894C302.219 90.1463 311.563 104.537 319.862 111.716C331.032 121.376 341.187 123.056 354.842 125.642C382.731 130.92 409.741 112.764 433.16 98.5462C445.813 90.8662 458.446 77.4188 470 75C490.603 70.6877 502 93.75 550 93.75L550 93.75L550 56.25C534 56.25 522.189 48.7189 516.106 47.5674C505.122 45.4886 494.026 45.9227 482.637 48.3917C443.451 56.8862 416.87 80.1394 376.04 74.7332C348.629 71.1032 322.811 58.2414 296.088 51.3825C280.978 47.5046 268.504 39.0677 245.381 39.2717C224.074 39.4599 203.314 45.999 188.779 49.1498C184.611 50.0535 166 56.25 150 56.25L150 93.75" fill="#b69682" fill-rule="evenodd" opacity="1" stroke="none"/>
<path d="M550 93.75C502 93.75 490.603 70.6877 470 75C458.446 77.4188 445.813 90.8662 433.16 98.5462C409.741 112.764 382.731 130.92 354.842 125.642C341.187 123.056 328.616 117.476 317.448 107.814C309.147 100.637 302.219 90.1463 292.99 84.4894C276.331 74.2789 257.213 67.2557 241.701 67.3755C222.814 67.5214 194.427 79.7888 175.51 87.9094C173.144 88.9256 166 93.75 150 93.75L150 150C182 150 211.886 121.537 227.586 123.849C241.547 125.906 256.65 135.812 268.786 143.588C280.358 151.001 297.251 160.89 325.194 163.716C353.138 166.543 373.286 159.062 386.725 154.929C400.163 150.799 431.486 141.296 450.306 140.411C473.021 139.342 518 150 550 150L550 93.75" fill="#c1b2a9" fill-rule="evenodd" opacity="1" stroke="none"/>
<path d="M550 243.75C518 243.75 514.291 236.211 494.667 226.877C479.102 219.474 460.979 211.427 444.219 210C424.248 208.299 400.925 216.66 383.267 227.479C369.509 235.911 353.715 246.019 338.021 248.4C313.816 252.075 288.722 237.411 268.336 222.101C239.221 200.241 223.621 215.102 206.25 225.69C195.954 231.966 182 243.75 150 243.75L150 206.25L150 206.25C166 206.25 180.898 202.556 189.256 198.431C213.424 186.501 255.563 181.314 273.165 186.568C290.765 191.824 305.019 201.075 317.566 205.682C334.976 212.074 364.389 206.741 378.739 201.137C394.408 195.017 425.598 181.836 441.97 183.615C458.104 185.37 484.15 189.435 499.789 195.176C518.637 202.097 518 206.25 550 206.25C550 206.25 518 206.25 550 206.25L550 243.75" fill="#bb9a7f" fill-rule="evenodd" opacity="1" stroke="none"/>
<path d="M550 281.25C534 281.25 526.197 273.938 511.968 268.399C497.739 262.862 484.896 257.364 466.219 255.742C428.886 252.499 384.829 275.029 349.56 286.116C305.858 299.854 278.45 266.829 252.786 257.222C231.974 249.431 203.653 258.855 190.213 267.469C176.771 276.083 182 281.25 150 281.25L150 300L550 300L550 281.25" fill="#f0c195" fill-rule="evenodd" opacity="1" stroke="none"/>
</g>
<g opacity="1">
<path d="M950 18.75C934 18.75 927.901 11.7308 913.6 11.3822C897.23 10.983 873.693 22.4558 857.24 17.8159C838.981 12.6666 809.816 9.76594 796.886 9.11512C768.758 7.69913 742.219 16.9688 714.293 17.0861C699.504 17.1484 685.587 11.9334 670.859 11.9953C658.059 12.0489 644.835 18.0808 631.878 17.7649C617.734 17.4201 603.784 13.1978 589.856 10.6253C577.334 8.31243 566 18.75 550 18.75L550 18.75L550 0L950 0L950 18.75" fill="#ddb289" fill-rule="evenodd" opacity="1" stroke="none"/>
<path d="M550 93.75C566 93.75 573.144 88.9256 575.51 87.9094C594.427 79.7888 622.814 67.5214 641.701 67.3755C657.213 67.2557 676.331 74.2789 692.99 84.4894C702.219 90.1463 711.563 104.537 719.862 111.716C731.032 121.376 741.187 123.056 754.842 125.642C782.731 130.92 809.741 112.764 833.16 98.5462C845.813 90.8662 858.446 77.4188 870 75C890.603 70.6877 902 93.75 950 93.75L950 93.75L950 56.25C934 56.25 922.189 48.7189 916.106 47.5674C905.122 45.4886 894.026 45.9227 882.637 48.3917C843.451 56.8862 816.87 80.1394 776.04 74.7332C748.629 71.1032 722.811 58.2414 696.088 51.3825C680.978 47.5046 668.504 39.0677 645.381 39.2717C624.074 39.4599 603.314 45.999 588.779 49.1498C584.611 50.0535 566 56.25 550 56.25L550 93.75" fill="#b69682" fill-rule="evenodd" opacity="1" stroke="none"/>
<path d="M950 93.75C902 93.75 890.603 70.6877 870 75C858.446 77.4188 845.813 90.8662 833.16 98.5462C809.741 112.764 782.731 130.92 754.842 125.642C741.187 123.056 728.616 117.476 717.448 107.814C709.147 100.637 702.219 90.1463 692.99 84.4894C676.331 74.2789 657.213 67.2557 641.701 67.3755C622.814 67.5214 594.427 79.7888 575.51 87.9094C573.144 88.9256 566 93.75 550 93.75L550 150C582 150 611.886 121.537 627.586 123.849C641.547 125.906 656.65 135.812 668.786 143.588C680.358 151.001 697.251 160.89 725.194 163.716C753.138 166.543 773.286 159.062 786.725 154.929C800.163 150.799 831.486 141.296 850.306 140.411C873.021 139.342 918 150 950 150L950 93.75" fill="#c1b2a9" fill-rule="evenodd" opacity="1" stroke="none"/>
<path d="M950 243.75C918 243.75 914.291 236.211 894.667 226.877C879.102 219.474 860.979 211.427 844.219 210C824.248 208.299 800.925 216.66 783.267 227.479C769.509 235.911 753.715 246.019 738.021 248.4C713.816 252.075 688.722 237.411 668.336 222.101C639.221 200.241 623.621 215.102 606.25 225.69C595.954 231.966 582 243.75 550 243.75L550 206.25L550 206.25C566 206.25 580.898 202.556 589.256 198.431C613.424 186.501 655.563 181.314 673.165 186.568C690.765 191.824 705.019 201.075 717.566 205.682C734.976 212.074 764.389 206.741 778.739 201.137C794.408 195.017 825.598 181.836 841.97 183.615C858.104 185.37 884.15 189.435 899.789 195.176C918.637 202.097 918 206.25 950 206.25C950 206.25 918 206.25 950 206.25L950 243.75" fill="#bb9a7f" fill-rule="evenodd" opacity="1" stroke="none"/>
<path d="M950 281.25C934 281.25 926.197 273.938 911.968 268.399C897.739 262.862 884.896 257.364 866.219 255.742C828.886 252.499 784.829 275.029 749.56 286.116C705.858 299.854 678.45 266.829 652.786 257.222C631.974 249.431 603.653 258.855 590.213 267.469C576.771 276.083 582 281.25 550 281.25L550 300L950 300L950 281.25" fill="#f0c195" fill-rule="evenodd" opacity="1" stroke="none"/>
</g>
<g opacity="1">
<path d="M150 18.75C134 18.75 127.901 11.7308 113.6 11.3822C97.2304 10.983 73.6928 22.4558 57.24 17.8159C38.9808 12.6666 9.81602 9.76594-3.11362 9.11512C-31.2416 7.69913-57.7808 16.9688-85.7072 17.0861C-100.496 17.1484-114.413 11.9334-129.141 11.9953C-141.941 12.0489-155.165 18.0808-168.122 17.7649C-182.266 17.4201-196.216 13.1978-210.144 10.6253C-222.666 8.31243-234 18.75-250 18.75L-250 18.75L-250 0L150 0L150 18.75" fill="#ddb289" fill-rule="evenodd" opacity="1" stroke="none"/>
<path d="M-250 93.75C-234 93.75-226.856 88.9256-224.49 87.9094C-205.573 79.7888-177.186 67.5214-158.299 67.3755C-142.787 67.2557-123.669 74.2789-107.01 84.4894C-97.7808 90.1463-88.4368 104.537-80.1376 111.716C-68.968 121.376-58.8128 123.056-45.1584 125.642C-17.2688 130.92 9.74082 112.764 33.16 98.5462C45.8128 90.8662 58.4464 77.4188 70 75C90.6032 70.6877 102 93.75 150 93.75L150 93.75L150 56.25C134 56.25 122.189 48.7189 116.106 47.5674C105.122 45.4886 94.0256 45.9227 82.6368 48.3917C43.4512 56.8862 16.8704 80.1394-23.96 74.7332C-51.3712 71.1032-77.1888 58.2414-103.912 51.3825C-119.022 47.5046-131.496 39.0677-154.619 39.2717C-175.926 39.4599-196.686 45.999-211.221 49.1498C-215.389 50.0535-234 56.25-250 56.25L-250 93.75" fill="#b69682" fill-rule="evenodd" opacity="1" stroke="none"/>
<path d="M150 93.75C102 93.75 90.6032 70.6877 70 75C58.4464 77.4188 45.8128 90.8662 33.16 98.5462C9.74082 112.764-17.2688 130.92-45.1584 125.642C-58.8128 123.056-71.384 117.476-82.552 107.814C-90.8528 100.637-97.7808 90.1463-107.01 84.4894C-123.669 74.2789-142.787 67.2557-158.299 67.3755C-177.186 67.5214-205.573 79.7888-224.49 87.9094C-226.856 88.9256-234 93.75-250 93.75L-250 150C-218 150-188.114 121.537-172.414 123.849C-158.453 125.906-143.35 135.812-131.214 143.588C-119.642 151.001-102.749 160.89-74.8064 163.716C-46.8624 166.543-26.7136 159.062-13.2752 154.929C0.163184 150.799 31.4864 141.296 50.3056 140.411C73.0208 139.342 118 150 150 150L150 93.75" fill="#c1b2a9" fill-rule="evenodd" opacity="1" stroke="none"/>
<path d="M150 243.75C118 243.75 114.291 236.211 94.6672 226.877C79.1024 219.474 60.9792 211.427 44.2192 210C24.248 208.299 0.924805 216.66-16.7328 227.479C-30.4912 235.911-46.2848 246.019-61.9792 248.4C-86.184 252.075-111.278 237.411-131.664 222.101C-160.779 200.241-176.379 215.102-193.75 225.69C-204.046 231.966-218 243.75-250 243.75L-250 206.25L-250 206.25C-234 206.25-219.102 202.556-210.744 198.431C-186.576 186.501-144.437 181.314-126.835 186.568C-109.235 191.824-94.9808 201.075-82.4336 205.682C-65.024 212.074-35.6112 206.741-21.2608 201.137C-5.59199 195.017 25.5984 181.836 41.9696 183.615C58.104 185.37 84.1504 189.435 99.7888 195.176C118.637 202.097 118 206.25 150 206.25C150 206.25 118 206.25 150 206.25L150 243.75" fill="#bb9a7f" fill-rule="evenodd" opacity="1" stroke="none"/>
<path d="M150 281.25C134 281.25 126.197 273.938 111.968 268.399C97.7392 262.862 84.896 257.364 66.2192 255.742C28.8864 252.499-15.1712 275.029-50.44 286.116C-94.1424 299.854-121.55 266.829-147.214 257.222C-168.026 249.431-196.347 258.855-209.787 267.469C-223.229 276.083-218 281.25-250 281.25L-250 300L150 300L150 281.25" fill="#f0c195" fill-rule="evenodd" opacity="1" stroke="none"/>
</g>
</g>
</svg>
