<?xml version="1.0" encoding="UTF-8" standalone="no"?>
<!DOCTYPE svg PUBLIC "-//W3C//DTD SVG 1.1//EN" "http://www.w3.org/Graphics/SVG/1.1/DTD/svg11.dtd">

<!-- Created with Vectornator (http://vectornator.io/) -->
<svg height="100%" stroke-miterlimit="10" style="fill-rule:nonzero;clip-rule:evenodd;stroke-linecap:round;stroke-linejoin:round;" version="1.1" viewBox="0 0 2388 1668" width="100%" xml:space="preserve" xmlns="http://www.w3.org/2000/svg" xmlns:vectornator="http://vectornator.io" xmlns:xlink="http://www.w3.org/1999/xlink">
<metadata>
<vectornator:setting key="IsTimeLapseWatermarkDisabled" value="false"/>
<vectornator:setting key="UndoHistoryDisabled" value="true"/>
<vectornator:setting key="VNDimensionsVisible" value="true"/>
<vectornator:setting key="VNSnapToGuides" value="true"/>
<vectornator:setting key="WDCMYKEnabledKey" value="false"/>
<vectornator:setting key="WDDisplayWhiteBackground" value="true"/>
<vectornator:setting key="WDDynamicGuides" value="true"/>
<vectornator:setting key="WDGuidesVisible" value="true"/>
<vectornator:setting key="WDIsolateActiveLayer" value="false"/>
<vectornator:setting key="WDOutlineMode" value="false"/>
<vectornator:setting key="WDRulersVisible" value="true"/>
<vectornator:setting key="WDSnapToEdges" value="false"/>
<vectornator:setting key="WDSnapToGrid" value="false"/>
<vectornator:setting key="WDSnapToPoints" value="true"/>
<vectornator:setting key="WDUnits" value="Points"/>
</metadata>
<defs/>
<g id="Layer-1" vectornator:layerName="Layer 1">
<path d="M150 0L150.22 0.440028C232.941 0.440028 300 67.4988 300 150.22L300 150.22C300 232.941 232.721 300 150 300L150.22 300C67.4988 300 0 232.721 0 150L0 150C0 67.2788 67.2788 0 150 0Z" fill="#f1d0b5" fill-rule="evenodd" opacity="1" stroke="none"/>
</g>
<g id="Layer-3" vectornator:layerName="Layer 3" visibility="hidden">
<path d="M150 0L550 0L550 300L150 300L150 0Z" fill="#000000" fill-opacity="0.101166" fill-rule="evenodd" opacity="1" stroke="none"/>
</g>
<g id="body" vectornator:layerName="body">
<g opacity="1">
<path d="M150 100L150 140C170 140 190.617 146.522 207.616 145.048C220.907 143.896 235.662 152.288 249.26 152.616C261.574 152.914 270.148 154.15 282.416 153.086C286.66 152.718 296.542 153.69 300.673 154.68C310.816 157.111 320.34 157.753 330.46 157.998C334.828 158.103 343.764 159.181 348.101 158.805C356.761 158.055 361.481 158.763 370.163 158.01C376.206 157.487 384.047 153.262 390.295 152.72C411.433 150.888 429.658 152.139 450.748 152.227C457.385 152.255 465.102 152.225 471.813 151.643C479.062 151.015 485.865 147.32 493.119 146.691C505.333 145.632 508.951 150.336 520.443 146.954C530.033 144.131 530 140 550 140L550 100C530 100 527.814 101.51 525.571 101.958C512.313 104.606 500.219 109.435 486.268 110.644C480.37 111.156 472.956 108.057 467.295 106.7C439.243 99.9754 412.055 89.7203 382.533 96.0385C342.968 104.506 307.352 125.415 265.643 119.524C238.592 115.703 216.076 90.8772 196.251 91.4244C176.818 91.9607 180 100 150 100Z" fill="#db9365" fill-rule="evenodd" opacity="1" stroke="none"/>
<path d="M150 260L150 300L550 300L550 260C520 260 517.534 252.975 507.215 255.263C497.311 257.459 495.116 262.569 487.211 264.892C479.307 267.215 469.232 265.76 458.08 269.388C442.905 274.324 441.494 274.201 425.956 277.813C405.501 282.567 377.408 276.209 355.944 276.119C350.766 276.098 345.269 274.069 340.16 273.141C319.792 269.439 300.104 263.765 279.719 260.06C251.336 254.902 242.761 247.948 214.699 250.381C209.367 250.843 196.963 250.889 186.811 253.104C172.421 256.243 170 260 150 260Z" fill="#d8b68d" fill-rule="evenodd" opacity="1" stroke="none"/>
<path d="M550 230C530 230 507.09 243.006 485.773 246.822C479.675 247.914 462.766 250.634 456.531 250.483C441.68 250.124 425.69 250.027 411.402 245.701C394.367 240.543 376.411 234.208 358.464 233.212C341.278 232.259 335.608 231.697 324.646 232.788C316.828 233.565 302.709 240.103 289.159 240.022C271.077 239.915 255.61 232.178 242.422 230.892C234.817 230.15 218.955 235.524 209.522 235.001C194.804 234.184 170 230 150 230L150 200C170 200 170.726 206.425 182.705 208.237C194.685 210.05 204.628 214.277 212.372 214.766C220.347 215.27 228.077 213.546 235.847 212.307C246 210.687 256.84 210.468 266.905 207.952C280.921 204.449 294.256 200.788 308.426 197.729C316.606 195.962 326.384 197.779 334.708 197.821C367.496 197.986 399.8 204.858 431.8 210.657C438.381 211.849 459.381 213.587 462.639 213.793C473.059 214.451 492.751 215.525 508.611 214.116C524.471 212.707 530 200 550 200L550 230" fill="#ddb496" fill-rule="evenodd" opacity="1" stroke="none"/>
<path d="M150 200L150 210C170 210 178.98 216.87 190.368 218.69C201.029 220.394 212.885 216.159 223.707 216.421C228.517 216.538 233.169 218.962 237.923 219.225C254.792 220.161 269.827 211.409 285.748 208.559C294.454 207 303.456 204.539 312.039 203.795C318.195 203.262 325.016 205.066 331.415 205.221C343.707 205.518 354.156 210.956 365.205 215.333C374.763 219.119 384.621 219.964 394.643 221.786C399.664 222.698 404.285 225.607 409.528 225.153C421.666 224.101 433.762 223.673 445.949 222.616C448.47 222.398 451.8 223.062 454.297 222.203C458.965 220.597 465.792 217.408 470.672 217.678C482.603 218.34 495.217 219.741 507.239 220.408C515.229 220.851 530 210 550 210L550 200C530 200 524.676 193.522 509.591 194.947C492.9 196.524 485.609 206.083 467.473 205.763C449.29 205.443 422.647 202.84 404.993 197.91C380.254 191.002 350.651 182.438 324.667 184.691C304.743 186.418 283.37 189.695 264.567 197.043C259.046 199.2 254.215 202.48 248.405 204.033C240.542 206.135 232.761 206.847 224.914 208.864C204.487 214.115 180 200 150 200Z" fill="#cd7244" fill-rule="evenodd" opacity="1" stroke="none"/>
<path d="M150 40C160 40 159.827 42.7749 166.238 42.4305C179.488 41.7186 179.423 32.9087 187.109 36.1813C198.15 40.8822 200.966 53.1111 215.055 52.8131C221.523 52.6763 227.583 46.5205 231.98 42.411C242.822 32.2788 262.698 13.6551 278.732 21.9879C294.07 29.9593 299.091 51.9559 310.764 63.9316C314.294 67.5537 320.606 74.7955 326.411 74.0963C343.255 72.0673 348.454 32.3256 365.784 28.7581C376.252 26.603 376.251 42.7682 383.938 44.8183C387.87 45.8668 391.3 37.1278 395.333 36.5109C402.479 35.4178 408.188 45.1026 415.891 44.0335C427.521 42.4195 437.216 30.339 449.027 30.6879C470.38 31.3187 480.063 54.6768 501.259 54.7921C521.838 54.9041 520.474 40.0398 550 40C550 40 549.798 0.431117 550 0C550.202-0.431117 150 0 150 0L150 18.38" fill="#dcb594" fill-rule="evenodd" opacity="1" stroke="none"/>
<path d="M150 40C160 40 159.827 42.7749 166.238 42.4305C179.488 41.7186 179.423 32.9087 187.109 36.1813C198.15 40.8822 200.966 53.1111 215.055 52.8131C221.523 52.6763 227.583 46.5205 231.98 42.411C242.822 32.2788 262.698 13.6551 278.732 21.9879C294.07 29.9593 299.091 51.9559 310.764 63.9316C314.294 67.5537 320.606 74.7955 326.411 74.0963C343.255 72.0673 348.454 32.3256 365.784 28.7581C376.252 26.603 376.251 42.7682 383.938 44.8183C387.87 45.8668 391.3 37.1278 395.333 36.5109C402.479 35.4178 408.188 45.1026 415.891 44.0335C427.521 42.4195 437.216 30.339 449.027 30.6879C470.38 31.3187 480.063 54.6768 501.259 54.7921C521.838 54.9041 520.474 40.0398 550 40" fill="none" fill-rule="evenodd" opacity="1" stroke="#000000" stroke-linecap="round" stroke-linejoin="round" stroke-width="1"/>
<path d="M150 210C170 210 178.98 216.87 190.368 218.69C201.029 220.394 212.885 216.159 223.707 216.421C228.517 216.538 233.169 218.962 237.923 219.225C254.792 220.161 269.827 211.409 285.748 208.559C294.454 207 303.456 204.539 312.039 203.795C318.195 203.262 325.016 205.066 331.415 205.221C343.707 205.518 354.156 210.956 365.205 215.333C374.763 219.119 384.621 219.964 394.643 221.786C399.664 222.698 404.285 225.607 409.528 225.153C421.666 224.101 433.762 223.673 445.949 222.616C448.47 222.398 451.8 223.062 454.297 222.203C458.965 220.597 465.792 217.408 470.672 217.678C482.603 218.34 495.217 219.741 507.239 220.408C515.229 220.851 530 210 550 210" fill="none" fill-rule="evenodd" opacity="1" stroke="#000000" stroke-linecap="round" stroke-linejoin="round" stroke-width="1"/>
<path d="M550 260C520 260 517.534 252.975 507.215 255.263C497.311 257.459 495.116 262.569 487.211 264.892C479.307 267.215 469.232 265.76 458.08 269.388C442.905 274.324 441.494 274.201 425.956 277.813C405.501 282.567 377.408 276.209 355.944 276.119C350.766 276.098 345.269 274.069 340.16 273.141C319.792 269.439 300.104 263.765 279.719 260.06C251.336 254.902 242.761 247.948 214.699 250.381C209.367 250.843 196.963 250.889 186.811 253.104C172.421 256.243 170 260 150 260" fill="none" fill-rule="evenodd" opacity="1" stroke="#000000" stroke-linecap="round" stroke-linejoin="round" stroke-width="1"/>
<path d="M205.474 256.03L205.474 256.03C208.697 255.286 212.433 258.345 213.82 262.861L213.82 262.861C215.206 267.378 213.718 271.642 210.496 272.386L210.496 272.386C207.274 273.13 203.537 270.072 202.151 265.555L202.151 265.555C200.764 261.039 202.252 256.774 205.474 256.03Z" fill="#c88265" fill-rule="evenodd" opacity="1" stroke="none"/>
<path d="M406.376 169.383L406.376 169.383C410.542 168.476 415.372 172.204 417.165 177.709L417.165 177.709C418.957 183.214 417.034 188.411 412.868 189.318L412.868 189.318C408.702 190.225 403.872 186.498 402.079 180.993L402.079 180.993C400.287 175.488 402.21 170.29 406.376 169.383Z" fill="#c88265" fill-rule="evenodd" opacity="1" stroke="none"/>
<path d="M313.06 105.986L313.06 105.986C317.285 105.833 319.48 111.347 317.962 118.301L317.962 118.301C316.444 125.255 311.788 131.015 307.563 131.168L307.563 131.168C303.338 131.32 301.144 125.806 302.662 118.852L302.662 118.852C304.18 111.899 308.835 106.138 313.06 105.986Z" fill="#c88265" fill-rule="evenodd" opacity="1" stroke="none"/>
<path d="M228.033 42.807L228.033 42.807C231.635 45.712 232.326 52.0382 229.576 56.9369L229.576 56.9369C226.825 61.8357 221.675 63.4519 218.073 60.5469L218.073 60.5469C214.471 57.6418 213.78 51.3157 216.53 46.4169L216.53 46.4169C219.281 41.5182 224.43 39.902 228.033 42.807Z" fill="#c88265" fill-rule="evenodd" opacity="1" stroke="none"/>
<path d="M376.819 267.381L376.819 267.381C380.985 266.474 385.815 270.202 387.607 275.707L387.607 275.707C389.4 281.212 387.476 286.409 383.31 287.316L383.31 287.316C379.145 288.223 374.315 284.496 372.522 278.991L372.522 278.991C370.729 273.486 372.653 268.288 376.819 267.381Z" fill="#edd5bb" fill-rule="evenodd" opacity="1" stroke="none"/>
<path d="M500.759 36.0518L500.759 36.0518C505.969 38.9457 507.097 48.1562 503.279 56.6242L503.279 56.6242C499.461 65.0921 492.142 69.6109 486.932 66.717L486.932 66.717C481.722 63.8232 480.594 54.6126 484.412 46.1446L484.412 46.1446C488.23 37.6767 495.549 33.158 500.759 36.0518Z" fill="#edd5bb" fill-rule="evenodd" opacity="1" stroke="none"/>
</g>
<g opacity="1">
<path d="M550 100L550 140C570 140 590.617 146.522 607.616 145.048C620.907 143.896 635.662 152.288 649.26 152.616C661.574 152.914 670.148 154.15 682.416 153.086C686.66 152.718 696.542 153.69 700.673 154.68C710.816 157.111 720.34 157.753 730.46 157.998C734.828 158.103 743.764 159.181 748.101 158.805C756.761 158.055 761.481 158.763 770.163 158.01C776.206 157.487 784.047 153.262 790.295 152.72C811.433 150.888 829.658 152.139 850.748 152.227C857.385 152.255 865.102 152.225 871.813 151.643C879.062 151.015 885.865 147.32 893.119 146.691C905.333 145.632 908.951 150.336 920.443 146.954C930.033 144.131 930 140 950 140L950 100C930 100 927.814 101.51 925.571 101.958C912.313 104.606 900.219 109.435 886.268 110.644C880.37 111.156 872.956 108.057 867.295 106.7C839.243 99.9754 812.055 89.7203 782.533 96.0385C742.968 104.506 707.352 125.415 665.643 119.524C638.592 115.703 616.076 90.8772 596.251 91.4244C576.818 91.9607 580 100 550 100Z" fill="#db9365" fill-rule="evenodd" opacity="1" stroke="none"/>
<path d="M550 260L550 300L950 300L950 260C920 260 917.534 252.975 907.215 255.263C897.311 257.459 895.116 262.569 887.211 264.892C879.307 267.215 869.232 265.76 858.08 269.388C842.905 274.324 841.494 274.201 825.956 277.813C805.501 282.567 777.408 276.209 755.944 276.119C750.766 276.098 745.269 274.069 740.16 273.141C719.792 269.439 700.104 263.765 679.719 260.06C651.336 254.902 642.761 247.948 614.699 250.381C609.367 250.843 596.963 250.889 586.811 253.104C572.421 256.243 570 260 550 260Z" fill="#d8b68d" fill-rule="evenodd" opacity="1" stroke="none"/>
<path d="M950 230C930 230 907.09 243.006 885.773 246.822C879.675 247.914 862.766 250.634 856.531 250.483C841.68 250.124 825.69 250.027 811.402 245.701C794.367 240.543 776.411 234.208 758.464 233.212C741.278 232.259 735.608 231.697 724.646 232.788C716.828 233.565 702.709 240.103 689.159 240.022C671.077 239.915 655.61 232.178 642.422 230.892C634.817 230.15 618.955 235.524 609.522 235.001C594.804 234.184 570 230 550 230L550 200C570 200 570.726 206.425 582.705 208.237C594.685 210.05 604.628 214.277 612.372 214.766C620.347 215.27 628.077 213.546 635.847 212.307C646 210.687 656.84 210.468 666.905 207.952C680.921 204.449 694.256 200.788 708.426 197.729C716.606 195.962 726.384 197.779 734.708 197.821C767.496 197.986 799.8 204.858 831.8 210.657C838.381 211.849 859.381 213.587 862.639 213.793C873.059 214.451 892.751 215.525 908.611 214.116C924.471 212.707 930 200 950 200L950 230" fill="#ddb496" fill-rule="evenodd" opacity="1" stroke="none"/>
<path d="M550 200L550 210C570 210 578.98 216.87 590.368 218.69C601.029 220.394 612.885 216.159 623.707 216.421C628.517 216.538 633.169 218.962 637.923 219.225C654.792 220.161 669.827 211.409 685.748 208.559C694.454 207 703.456 204.539 712.039 203.795C718.195 203.262 725.016 205.066 731.415 205.221C743.707 205.518 754.156 210.956 765.205 215.333C774.763 219.119 784.621 219.964 794.643 221.786C799.664 222.698 804.285 225.607 809.528 225.153C821.666 224.101 833.762 223.673 845.949 222.616C848.47 222.398 851.8 223.062 854.297 222.203C858.965 220.597 865.792 217.408 870.672 217.678C882.603 218.34 895.217 219.741 907.239 220.408C915.229 220.851 930 210 950 210L950 200C930 200 924.676 193.522 909.591 194.947C892.9 196.524 885.609 206.083 867.473 205.763C849.29 205.443 822.647 202.84 804.993 197.91C780.254 191.002 750.651 182.438 724.667 184.691C704.743 186.418 683.37 189.695 664.567 197.043C659.046 199.2 654.215 202.48 648.405 204.033C640.542 206.135 632.761 206.847 624.914 208.864C604.487 214.115 580 200 550 200Z" fill="#cd7244" fill-rule="evenodd" opacity="1" stroke="none"/>
<path d="M550 40C560 40 559.827 42.7749 566.238 42.4305C579.488 41.7186 579.423 32.9087 587.109 36.1813C598.15 40.8822 600.966 53.1111 615.055 52.8131C621.523 52.6763 627.583 46.5205 631.98 42.411C642.822 32.2788 662.698 13.6551 678.732 21.9879C694.07 29.9593 699.091 51.9559 710.764 63.9316C714.294 67.5537 720.606 74.7955 726.411 74.0963C743.255 72.0673 748.454 32.3256 765.784 28.7581C776.252 26.603 776.251 42.7682 783.938 44.8183C787.87 45.8668 791.3 37.1278 795.333 36.5109C802.479 35.4178 808.188 45.1026 815.891 44.0335C827.521 42.4195 837.216 30.339 849.027 30.6879C870.38 31.3187 880.063 54.6768 901.259 54.7921C921.838 54.9041 920.474 40.0398 950 40C950 40 949.798 0.431117 950-9.32587e-15C950.202-0.431117 550-9.32587e-15 550-9.32587e-15L550 18.38" fill="#dcb594" fill-rule="evenodd" opacity="1" stroke="none"/>
<path d="M550 40C560 40 559.827 42.7749 566.238 42.4305C579.488 41.7186 579.423 32.9087 587.109 36.1813C598.15 40.8822 600.966 53.1111 615.055 52.8131C621.523 52.6763 627.583 46.5205 631.98 42.411C642.822 32.2788 662.698 13.6551 678.732 21.9879C694.07 29.9593 699.091 51.9559 710.764 63.9316C714.294 67.5537 720.606 74.7955 726.411 74.0963C743.255 72.0673 748.454 32.3256 765.784 28.7581C776.252 26.603 776.251 42.7682 783.938 44.8183C787.87 45.8668 791.3 37.1278 795.333 36.5109C802.479 35.4178 808.188 45.1026 815.891 44.0335C827.521 42.4195 837.216 30.339 849.027 30.6879C870.38 31.3187 880.063 54.6768 901.259 54.7921C921.838 54.9041 920.474 40.0398 950 40" fill="none" fill-rule="evenodd" opacity="1" stroke="#000000" stroke-linecap="round" stroke-linejoin="round" stroke-width="1"/>
<path d="M550 210C570 210 578.98 216.87 590.368 218.69C601.029 220.394 612.885 216.159 623.707 216.421C628.517 216.538 633.169 218.962 637.923 219.225C654.792 220.161 669.827 211.409 685.748 208.559C694.454 207 703.456 204.539 712.039 203.795C718.195 203.262 725.016 205.066 731.415 205.221C743.707 205.518 754.156 210.956 765.205 215.333C774.763 219.119 784.621 219.964 794.643 221.786C799.664 222.698 804.285 225.607 809.528 225.153C821.666 224.101 833.762 223.673 845.949 222.616C848.47 222.398 851.8 223.062 854.297 222.203C858.965 220.597 865.792 217.408 870.672 217.678C882.603 218.34 895.217 219.741 907.239 220.408C915.229 220.851 930 210 950 210" fill="none" fill-rule="evenodd" opacity="1" stroke="#000000" stroke-linecap="round" stroke-linejoin="round" stroke-width="1"/>
<path d="M950 260C920 260 917.534 252.975 907.215 255.263C897.311 257.459 895.116 262.569 887.211 264.892C879.307 267.215 869.232 265.76 858.08 269.388C842.905 274.324 841.494 274.201 825.956 277.813C805.501 282.567 777.408 276.209 755.944 276.119C750.766 276.098 745.269 274.069 740.16 273.141C719.792 269.439 700.104 263.765 679.719 260.06C651.336 254.902 642.761 247.948 614.699 250.381C609.367 250.843 596.963 250.889 586.811 253.104C572.421 256.243 570 260 550 260" fill="none" fill-rule="evenodd" opacity="1" stroke="#000000" stroke-linecap="round" stroke-linejoin="round" stroke-width="1"/>
<path d="M605.474 256.03L605.474 256.03C608.697 255.286 612.433 258.345 613.82 262.861L613.82 262.861C615.206 267.378 613.718 271.642 610.496 272.386L610.496 272.386C607.274 273.13 603.537 270.072 602.151 265.555L602.151 265.555C600.764 261.039 602.252 256.774 605.474 256.03Z" fill="#c88265" fill-rule="evenodd" opacity="1" stroke="none"/>
<path d="M806.376 169.383L806.376 169.383C810.542 168.476 815.372 172.204 817.165 177.709L817.165 177.709C818.957 183.214 817.034 188.411 812.868 189.318L812.868 189.318C808.702 190.225 803.872 186.498 802.079 180.993L802.079 180.993C800.287 175.488 802.21 170.29 806.376 169.383Z" fill="#c88265" fill-rule="evenodd" opacity="1" stroke="none"/>
<path d="M713.06 105.986L713.06 105.986C717.285 105.833 719.48 111.347 717.962 118.301L717.962 118.301C716.444 125.255 711.788 131.015 707.563 131.168L707.563 131.168C703.338 131.32 701.144 125.806 702.662 118.852L702.662 118.852C704.18 111.899 708.835 106.138 713.06 105.986Z" fill="#c88265" fill-rule="evenodd" opacity="1" stroke="none"/>
<path d="M628.033 42.807L628.033 42.807C631.635 45.712 632.326 52.0382 629.576 56.9369L629.576 56.9369C626.825 61.8357 621.675 63.4519 618.073 60.5469L618.073 60.5469C614.471 57.6418 613.78 51.3157 616.53 46.4169L616.53 46.4169C619.281 41.5182 624.43 39.902 628.033 42.807Z" fill="#c88265" fill-rule="evenodd" opacity="1" stroke="none"/>
<path d="M776.819 267.381L776.819 267.381C780.985 266.474 785.815 270.202 787.607 275.707L787.607 275.707C789.4 281.212 787.476 286.409 783.31 287.316L783.31 287.316C779.145 288.223 774.315 284.496 772.522 278.991L772.522 278.991C770.729 273.486 772.653 268.288 776.819 267.381Z" fill="#edd5bb" fill-rule="evenodd" opacity="1" stroke="none"/>
<path d="M900.759 36.0518L900.759 36.0518C905.969 38.9457 907.097 48.1562 903.279 56.6242L903.279 56.6242C899.461 65.0921 892.142 69.6109 886.932 66.717L886.932 66.717C881.722 63.8232 880.594 54.6126 884.412 46.1446L884.412 46.1446C888.23 37.6767 895.549 33.158 900.759 36.0518Z" fill="#edd5bb" fill-rule="evenodd" opacity="1" stroke="none"/>
</g>
<g opacity="1">
<path d="M-250 100L-250 140C-230 140-209.383 146.522-192.384 145.048C-179.093 143.896-164.338 152.288-150.74 152.616C-138.426 152.914-129.852 154.15-117.584 153.086C-113.34 152.718-103.458 153.69-99.3271 154.68C-89.1841 157.111-79.6601 157.753-69.5401 157.998C-65.1721 158.103-56.2361 159.181-51.8991 158.805C-43.2391 158.055-38.5191 158.763-29.8371 158.01C-23.7941 157.487-15.9531 153.262-9.70506 152.72C11.4329 150.888 29.6579 152.139 50.7479 152.227C57.3849 152.255 65.1019 152.225 71.8129 151.643C79.0619 151.015 85.8649 147.32 93.1189 146.691C105.333 145.632 108.951 150.336 120.443 146.954C130.033 144.131 130 140 150 140L150 100C130 100 127.814 101.51 125.571 101.958C112.313 104.606 100.219 109.435 86.2679 110.644C80.3699 111.156 72.9559 108.057 67.2949 106.7C39.2429 99.9754 12.0549 89.7203-17.4671 96.0385C-57.0321 104.506-92.6481 125.415-134.357 119.524C-161.408 115.703-183.924 90.8772-203.749 91.4244C-223.182 91.9607-220 100-250 100Z" fill="#db9365" fill-rule="evenodd" opacity="1" stroke="none"/>
<path d="M-250 260L-250 300L150 300L150 260C120 260 117.534 252.975 107.215 255.263C97.3109 257.459 95.1159 262.569 87.2109 264.892C79.3069 267.215 69.2319 265.76 58.0799 269.388C42.9049 274.324 41.4939 274.201 25.9559 277.813C5.50093 282.567-22.5921 276.209-44.0561 276.119C-49.2341 276.098-54.7311 274.069-59.8401 273.141C-80.2081 269.439-99.8961 263.765-120.281 260.06C-148.664 254.902-157.239 247.948-185.301 250.381C-190.633 250.843-203.037 250.889-213.189 253.104C-227.579 256.243-230 260-250 260Z" fill="#d8b68d" fill-rule="evenodd" opacity="1" stroke="none"/>
<path d="M150 230C130 230 107.09 243.006 85.7729 246.822C79.6749 247.914 62.7659 250.634 56.5309 250.483C41.6799 250.124 25.6899 250.027 11.4019 245.701C-5.63307 240.543-23.5891 234.208-41.5361 233.212C-58.7221 232.259-64.3921 231.697-75.3541 232.788C-83.1721 233.565-97.2911 240.103-110.841 240.022C-128.923 239.915-144.39 232.178-157.578 230.892C-165.183 230.15-181.045 235.524-190.478 235.001C-205.196 234.184-230 230-250 230L-250 200C-230 200-229.274 206.425-217.295 208.237C-205.315 210.05-195.372 214.277-187.628 214.766C-179.653 215.27-171.923 213.546-164.153 212.307C-154 210.687-143.16 210.468-133.095 207.952C-119.079 204.449-105.744 200.788-91.5741 197.729C-83.3941 195.962-73.6161 197.779-65.2921 197.821C-32.5041 197.986-0.200089 204.858 31.7999 210.657C38.3809 211.849 59.3809 213.587 62.6389 213.793C73.0589 214.451 92.7509 215.525 108.611 214.116C124.471 212.707 130 200 150 200L150 230" fill="#ddb496" fill-rule="evenodd" opacity="1" stroke="none"/>
<path d="M-250 200L-250 210C-230 210-221.02 216.87-209.632 218.69C-198.971 220.394-187.115 216.159-176.293 216.421C-171.483 216.538-166.831 218.962-162.077 219.225C-145.208 220.161-130.173 211.409-114.252 208.559C-105.546 207-96.5441 204.539-87.9611 203.795C-81.8051 203.262-74.9841 205.066-68.5851 205.221C-56.2931 205.518-45.8441 210.956-34.7951 215.333C-25.2371 219.119-15.3791 219.964-5.35707 221.786C-0.336075 222.698 4.28493 225.607 9.52794 225.153C21.6659 224.101 33.7619 223.673 45.9489 222.616C48.4699 222.398 51.7999 223.062 54.2969 222.203C58.9649 220.597 65.7919 217.408 70.6719 217.678C82.6029 218.34 95.2169 219.741 107.239 220.408C115.229 220.851 130 210 150 210L150 200C130 200 124.676 193.522 109.591 194.947C92.8999 196.524 85.6089 206.083 67.4729 205.763C49.2899 205.443 22.6469 202.84 4.99294 197.91C-19.7461 191.002-49.3491 182.438-75.3331 184.691C-95.2571 186.418-116.63 189.695-135.433 197.043C-140.954 199.2-145.785 202.48-151.595 204.033C-159.458 206.135-167.239 206.847-175.086 208.864C-195.513 214.115-220 200-250 200Z" fill="#cd7244" fill-rule="evenodd" opacity="1" stroke="none"/>
<path d="M-250 40C-240 40-240.173 42.7749-233.762 42.4305C-220.512 41.7186-220.577 32.9087-212.891 36.1813C-201.85 40.8822-199.034 53.1111-184.945 52.8131C-178.477 52.6763-172.417 46.5205-168.02 42.411C-157.178 32.2788-137.302 13.6551-121.268 21.9879C-105.93 29.9593-100.909 51.9559-89.2361 63.9316C-85.7061 67.5537-79.3941 74.7955-73.5891 74.0963C-56.7451 72.0673-51.5461 32.3256-34.2161 28.7581C-23.7481 26.603-23.7491 42.7682-16.0621 44.8183C-12.1301 45.8668-8.70009 37.1278-4.66707 36.5109C2.47893 35.4178 8.18791 45.1026 15.8909 44.0335C27.5209 42.4195 37.2159 30.339 49.0269 30.6879C70.3799 31.3187 80.0629 54.6768 101.259 54.7921C121.838 54.9041 120.474 40.0398 150 40C150 40 149.798 0.431117 150 0C150.202-0.431117-250 0-250 0L-250 18.38" fill="#dcb594" fill-rule="evenodd" opacity="1" stroke="none"/>
<path d="M-250 40C-240 40-240.173 42.7749-233.762 42.4305C-220.512 41.7186-220.577 32.9087-212.891 36.1813C-201.85 40.8822-199.034 53.1111-184.945 52.8131C-178.477 52.6763-172.417 46.5205-168.02 42.411C-157.178 32.2788-137.302 13.6551-121.268 21.9879C-105.93 29.9593-100.909 51.9559-89.2361 63.9316C-85.7061 67.5537-79.3941 74.7955-73.5891 74.0963C-56.7451 72.0673-51.5461 32.3256-34.2161 28.7581C-23.7481 26.603-23.7491 42.7682-16.0621 44.8183C-12.1301 45.8668-8.70009 37.1278-4.66707 36.5109C2.47893 35.4178 8.18791 45.1026 15.8909 44.0335C27.5209 42.4195 37.2159 30.339 49.0269 30.6879C70.3799 31.3187 80.0629 54.6768 101.259 54.7921C121.838 54.9041 120.474 40.0398 150 40" fill="none" fill-rule="evenodd" opacity="1" stroke="#000000" stroke-linecap="round" stroke-linejoin="round" stroke-width="1"/>
<path d="M-250 210C-230 210-221.02 216.87-209.632 218.69C-198.971 220.394-187.115 216.159-176.293 216.421C-171.483 216.538-166.831 218.962-162.077 219.225C-145.208 220.161-130.173 211.409-114.252 208.559C-105.546 207-96.5441 204.539-87.9611 203.795C-81.8051 203.262-74.9841 205.066-68.5851 205.221C-56.2931 205.518-45.8441 210.956-34.7951 215.333C-25.2371 219.119-15.3791 219.964-5.35707 221.786C-0.336075 222.698 4.28493 225.607 9.52794 225.153C21.6659 224.101 33.7619 223.673 45.9489 222.616C48.4699 222.398 51.7999 223.062 54.2969 222.203C58.9649 220.597 65.7919 217.408 70.6719 217.678C82.6029 218.34 95.2169 219.741 107.239 220.408C115.229 220.851 130 210 150 210" fill="none" fill-rule="evenodd" opacity="1" stroke="#000000" stroke-linecap="round" stroke-linejoin="round" stroke-width="1"/>
<path d="M150 260C120 260 117.534 252.975 107.215 255.263C97.3109 257.459 95.1159 262.569 87.2109 264.892C79.3069 267.215 69.2319 265.76 58.0799 269.388C42.9049 274.324 41.4939 274.201 25.9559 277.813C5.50093 282.567-22.5921 276.209-44.0561 276.119C-49.2341 276.098-54.7311 274.069-59.8401 273.141C-80.2081 269.439-99.8961 263.765-120.281 260.06C-148.664 254.902-157.239 247.948-185.301 250.381C-190.633 250.843-203.037 250.889-213.189 253.104C-227.579 256.243-230 260-250 260" fill="none" fill-rule="evenodd" opacity="1" stroke="#000000" stroke-linecap="round" stroke-linejoin="round" stroke-width="1"/>
<path d="M-194.526 256.03L-194.526 256.03C-191.304 255.286-187.567 258.345-186.181 262.861L-186.181 262.861C-184.795 267.378-186.282 271.642-189.504 272.386L-189.504 272.386C-192.726 273.13-196.463 270.072-197.849 265.555L-197.849 265.555C-199.237 261.039-197.748 256.774-194.526 256.03Z" fill="#c88265" fill-rule="evenodd" opacity="1" stroke="none"/>
<path d="M6.37597 169.383L6.37597 169.383C10.542 168.476 15.372 172.204 17.165 177.709L17.165 177.709C18.957 183.214 17.034 188.411 12.8679 189.318L12.8679 189.318C8.70196 190.225 3.87197 186.498 2.07894 180.993L2.07894 180.993C0.286951 175.488 2.20995 170.29 6.37597 169.383Z" fill="#c88265" fill-rule="evenodd" opacity="1" stroke="none"/>
<path d="M-86.9403 105.986L-86.9403 105.986C-82.7153 105.833-80.5203 111.347-82.0383 118.301L-82.0383 118.301C-83.5563 125.255-88.2123 131.015-92.4373 131.168L-92.4373 131.168C-96.6623 131.32-98.8563 125.806-97.3383 118.852L-97.3383 118.852C-95.8203 111.899-91.1653 106.138-86.9403 105.986Z" fill="#c88265" fill-rule="evenodd" opacity="1" stroke="none"/>
<path d="M-171.967 42.807L-171.967 42.807C-168.365 45.712-167.674 52.0382-170.424 56.9369L-170.424 56.9369C-173.175 61.8357-178.325 63.4519-181.927 60.5469L-181.927 60.5469C-185.529 57.6418-186.22 51.3157-183.47 46.4169L-183.47 46.4169C-180.719 41.5182-175.57 39.902-171.967 42.807Z" fill="#c88265" fill-rule="evenodd" opacity="1" stroke="none"/>
<path d="M-23.1814 267.381L-23.1814 267.381C-19.0155 266.474-14.1854 270.202-12.3934 275.707L-12.3934 275.707C-10.6005 281.212-12.5245 286.409-16.6904 287.316L-16.6904 287.316C-20.8555 288.223-25.6854 284.496-27.4784 278.991L-27.4784 278.991C-29.2714 273.486-27.3475 268.288-23.1814 267.381Z" fill="#edd5bb" fill-rule="evenodd" opacity="1" stroke="none"/>
<path d="M100.758 36.0518L100.758 36.0518C105.968 38.9457 107.096 48.1562 103.278 56.6242L103.278 56.6242C99.4605 65.0921 92.1415 69.6109 86.9315 66.717L86.9315 66.717C81.7214 63.8232 80.5935 54.6126 84.4114 46.1446L84.4114 46.1446C88.2294 37.6767 95.5484 33.158 100.758 36.0518Z" fill="#edd5bb" fill-rule="evenodd" opacity="1" stroke="none"/>
</g>
</g>
<g id="shiny" vectornator:layerName="shiny" visibility="hidden">
<path d="M197.781 7.90625C250.871 50.7816 278.191 115.614 262.844 178.75C248.01 239.77 196.967 283.724 133.219 299C138.733 299.614 144.322 300 150 300C232.843 300 300 232.843 300 150C300 83.887 257.163 27.8776 197.781 7.90625Z" fill="#000000" fill-opacity="0.128233" fill-rule="evenodd" opacity="1" stroke="none"/>
<g opacity="1">
<path d="M134.937 52.5352L134.937 52.5352C141.722 78.4544 123.306 111.754 93.8033 126.911L93.8033 126.911C64.3003 142.069 34.8826 133.345 28.0972 107.426L28.0972 107.426C21.3117 81.5065 39.7279 48.2072 69.2309 33.0496L69.2309 33.0496C98.7339 17.892 128.152 26.616 134.937 52.5352Z" fill="#ffffff" fill-opacity="0.153282" fill-rule="evenodd" opacity="1" stroke="none"/>
<path d="M125.847 50.9089L125.847 50.9089C130.345 67.3212 118.452 88.3244 99.2828 97.8208L99.2828 97.8208C80.1138 107.317 60.928 101.711 56.4301 85.2986L56.4301 85.2986C51.9323 68.8863 63.8255 47.8831 82.9945 38.3866L82.9945 38.3866C102.163 28.8902 121.349 34.4966 125.847 50.9089Z" fill="#ffffff" fill-opacity="0.25" fill-rule="evenodd" opacity="1" stroke="none"/>
<path d="M116.081 53.8466L116.081 53.8466C118.564 64.0444 111.533 77.2223 100.378 83.2802L100.378 83.2802C89.2228 89.3382 78.167 85.9822 75.6842 75.7844L75.6842 75.7844C73.2014 65.5866 80.2317 52.4087 91.387 46.3507L91.387 46.3507C102.542 40.2927 113.598 43.6488 116.081 53.8466Z" fill="#ffffff" fill-opacity="0.452702" fill-rule="evenodd" opacity="1" stroke="none"/>
</g>
</g>
</svg>
