<?xml version="1.0" encoding="UTF-8" standalone="no"?>
<!DOCTYPE svg PUBLIC "-//W3C//DTD SVG 1.1//EN" "http://www.w3.org/Graphics/SVG/1.1/DTD/svg11.dtd">

<!-- Created with Vectornator (http://vectornator.io/) -->
<svg height="100%" stroke-miterlimit="10" style="fill-rule:nonzero;clip-rule:evenodd;stroke-linecap:round;stroke-linejoin:round;" version="1.1" viewBox="0 0 2388 1668" width="100%" xml:space="preserve" xmlns="http://www.w3.org/2000/svg" xmlns:vectornator="http://vectornator.io" xmlns:xlink="http://www.w3.org/1999/xlink">
<metadata>
<vectornator:setting key="IsTimeLapseWatermarkDisabled" value="false"/>
<vectornator:setting key="UndoHistoryDisabled" value="true"/>
<vectornator:setting key="VNDimensionsVisible" value="true"/>
<vectornator:setting key="VNSnapToGuides" value="false"/>
<vectornator:setting key="WDCMYKEnabledKey" value="false"/>
<vectornator:setting key="WDDisplayWhiteBackground" value="true"/>
<vectornator:setting key="WDDynamicGuides" value="true"/>
<vectornator:setting key="WDGuidesVisible" value="true"/>
<vectornator:setting key="WDIsolateActiveLayer" value="false"/>
<vectornator:setting key="WDOutlineMode" value="false"/>
<vectornator:setting key="WDRulersVisible" value="true"/>
<vectornator:setting key="WDSnapToEdges" value="false"/>
<vectornator:setting key="WDSnapToGrid" value="false"/>
<vectornator:setting key="WDSnapToPoints" value="false"/>
<vectornator:setting key="WDUnits" value="Points"/>
</metadata>
<defs/>
<g id="planet" vectornator:layerName="planet">
<path d="M-0.276976 150C-0.276976 67.1573 66.9423 0 149.862 0C232.781 0 300 67.1573 300 150C300 232.843 232.781 300 149.862 300C66.9423 300-0.276976 232.843-0.276976 150Z" fill="#dd5833" fill-rule="evenodd" opacity="1" stroke="none"/>
</g>
<g id="guide" vectornator:layerName="guide"/>
<g id="body" vectornator:layerName="body">
<path d="M550 10C530 10 533.154 16.3059 526.525 17.9112C517.149 20.1813 517.633 17.9838 512.303 18.2289C508.99 18.3812 507.103 21.6561 503.329 21.1476C499.58 20.6425 495.977 17.1963 492.215 17.3692C489.088 17.513 486.469 19.528 483.185 19.0856C476.776 18.2221 471.116 13.8521 464.468 14.5002C459.143 15.0193 452.346 18.4929 447.213 17.6068C441.876 16.6855 436.186 14.7221 430.748 14.8456C425.815 14.9575 421.857 20.3547 416.669 20.987C411.639 21.5999 403.693 20.0235 399.574 21.2909C395.016 22.6934 392.215 26.7241 387.166 27.1145C383.094 27.4294 376.416 26.5789 372.667 28.3112C368.627 30.1777 367.483 35.2607 363.037 36.8987C356.724 39.2248 348.436 35.1693 341.81 36.4288C335.256 37.6745 329.101 40.9238 322.46 42.186C315.409 43.5263 307.913 38.887 300.78 40.2429C290.833 42.1336 282.964 45.7723 272.632 44.3804C266.629 43.5716 261.098 40.4369 254.918 39.6043C247.953 38.666 238.809 40.9406 232.298 38.1863C225.122 35.1511 218.744 29.5213 211.098 27.8353C201.981 25.8247 189.486 28.8129 180.419 24.628C173.058 21.2307 169.962 10.218 150 10L150 0L550 0L550 10" fill="#ffb3a6" fill-rule="evenodd" opacity="1" stroke="none"/>
<path d="M466.713 53.419C461.907 64.1972 450.24 76.3259 448.786 87.8084C447.759 95.9248 459.119 103.563 464.19 107.208C475.342 115.225 469.727 129.494 488.042 130.399C491.689 130.58 495.166 131.088 498.892 129.335C508.067 125.018 519.555 117.337 526.423 109.37C529.519 105.778 529.587 102.801 531.317 98.9208C536.38 87.5649 544.322 75.8436 538.487 64.8573C534.486 57.3228 525.922 54.3169 519.748 49.2374C516.085 46.2239 513.23 42.244 509.583 39.2442C507.623 37.6314 503.035 38.1266 500.541 37.3106C495.897 35.7905 492.733 30.396 488.038 28.8598C483.347 27.3244 476.672 33.8967 474.292 37.0382C471.199 41.1197 467.816 50.9456 466.713 53.419Z" fill="#a23918" fill-rule="evenodd" opacity="1" stroke="none"/>
<path d="M162.92 194.825C162.92 194.825 170.055 184.712 176.705 180.088C184.777 174.474 188.943 178.29 197.678 168.497C205.776 159.42 226.994 134.569 236.124 147.281C240.008 152.689 235.407 162.461 236.99 168.442C238.523 174.236 242.667 176.812 243.266 183.762C243.719 189.018 236.383 206.468 234.951 209.075C232.655 213.257 231.509 220.774 214.599 231.977C209.241 235.527 196.691 247.291 190.764 245.465C178.632 241.729 170.56 247.847 165.984 229.373C164.99 225.358 158.357 211.757 158.763 206.679C159.453 198.053 162.92 194.825 162.92 194.825Z" fill="#a23918" fill-rule="evenodd" opacity="1" stroke="none"/>
<path d="M150 280C170 280 181.094 280.065 190.738 278.94C202.346 277.586 216.133 273.731 227.68 273.942C241.581 274.195 259.528 280.952 272.725 285.62C290.353 291.855 311.705 285.928 329.38 283.257C374.448 276.446 423.652 262.256 468.899 263.08C488.291 263.434 520 280 550 280L550 280L550 260C520 260 427.304 238.502 414.103 235.845C371.005 227.17 320.573 243.854 279.5 255.002C255.361 261.553 226.885 255.916 202.426 262.554C190.845 265.697 180 260 150 260L150 260L150 280" fill="#b34829" fill-rule="evenodd" opacity="1" stroke="none"/>
<path d="M367.43 137.279C355.235 138.077 343.968 144.451 339.234 145.141C319.868 147.965 262.272 142.994 277.109 174.524C279.939 180.54 292.906 183.475 298.032 188.271C301.698 191.699 304.378 196.182 308.801 198.985C320.008 206.085 336.733 206.019 349.741 209.688C360.844 212.821 370.154 219.476 382.168 220.18C408.06 221.698 432.343 206.952 436.086 184.685C439.704 163.157 405.996 149.607 388.014 141.952C382.54 139.621 379.624 136.483 367.43 137.279Z" fill="#bc452a" fill-rule="evenodd" opacity="1" stroke="none"/>
<path d="M181.361 103.424C184.477 108.45 185.19 118.369 190.146 121.227C193.649 123.247 202.449 116.753 206.492 113.892C215.382 107.601 219.841 113.746 228.459 101.42C230.175 98.965 231.975 96.6796 232.782 93.8566C234.77 86.9061 236.148 77.8321 235.325 71.8593C234.953 69.166 233.53 68.6352 232.408 66.826C229.124 61.5304 226.947 54.2155 218.98 56.4021C213.516 57.9017 208.227 63.2448 202.992 66.6238C199.885 68.6285 196.669 69.9256 193.576 71.9211C191.914 72.994 190.108 76.1995 188.596 77.7648C185.781 80.681 181.735 81.9585 178.89 84.9056C176.047 87.8511 176.276 93.4662 176.747 95.5983C177.359 98.3685 180.645 102.271 181.361 103.424Z" fill="#bc452a" fill-rule="evenodd" opacity="1" stroke="none"/>
<g opacity="1">
<path d="M279.323 67.3619C275.625 73.8134 266.647 81.0734 265.528 87.9464C264.738 92.8044 273.479 97.3767 277.38 99.5587C285.962 104.357 281.641 112.898 295.735 113.44C298.541 113.548 301.217 113.852 304.084 112.803C311.143 110.219 319.984 105.621 325.268 100.852C327.651 98.7025 327.703 96.9204 329.035 94.598C332.931 87.8007 339.041 80.7846 334.551 74.2085C331.472 69.6986 324.883 67.8994 320.132 64.8589C317.313 63.055 315.116 60.6728 312.311 58.8772C310.802 57.9118 307.271 58.2082 305.352 57.7199C301.778 56.81 299.344 53.581 295.732 52.6615C292.122 51.7424 286.986 55.6764 285.154 57.5567C282.774 59.9999 280.171 65.8814 279.323 67.3619Z" fill="#c54416" fill-rule="evenodd" opacity="1" stroke="none"/>
<path d="M283.402 72.0006C280.613 76.8673 273.84 82.3437 272.997 87.5283C272.4 91.1929 278.994 94.6419 281.937 96.2879C288.411 99.9078 285.152 106.35 295.783 106.759C297.9 106.841 299.917 107.07 302.081 106.279C307.406 104.329 314.075 100.861 318.06 97.2641C319.857 95.6421 319.897 94.2978 320.901 92.5459C323.84 87.4184 328.45 82.1259 325.063 77.1653C322.74 73.7632 317.77 72.406 314.186 70.1126C312.059 68.7519 310.402 66.9548 308.286 65.6003C307.148 64.8721 304.485 65.0957 303.037 64.7273C300.341 64.0409 298.505 61.6051 295.78 60.9115C293.057 60.2182 289.182 63.1858 287.8 64.6042C286.005 66.4472 284.042 70.8838 283.402 72.0006Z" fill="#a23918" fill-rule="evenodd" opacity="1" stroke="none"/>
</g>
<g opacity="1">
<path d="M465.21 198.336C465.902 207.414 461.847 220.854 465.416 228.637C467.939 234.137 479.833 232.964 485.239 232.584C497.128 231.749 498.622 243.382 513.137 234.5C516.027 232.732 518.921 231.252 521.082 228.258C526.404 220.887 532.139 210.263 534.187 201.846C535.111 198.05 533.947 196.191 533.698 192.924C532.968 183.359 534.312 172.088 525.317 168.365C519.148 165.811 511.306 168.382 504.462 168.451C500.402 168.493 496.57 167.526 492.528 167.567C490.355 167.589 487.014 170.256 484.755 171.041C480.546 172.503 475.898 170.829 471.645 172.306C467.395 173.783 464.925 181.247 464.37 184.398C463.649 188.491 465.051 196.253 465.21 198.336Z" fill="#c54416" fill-rule="evenodd" opacity="1" stroke="none"/>
<path d="M472.471 200.352C472.993 207.2 469.934 217.338 472.627 223.209C474.529 227.358 483.502 226.473 487.58 226.186C496.548 225.556 497.675 234.331 508.624 227.632C510.805 226.298 512.987 225.181 514.618 222.923C518.632 217.363 522.958 209.349 524.503 202.999C525.2 200.136 524.322 198.734 524.134 196.269C523.584 189.054 524.597 180.552 517.812 177.743C513.159 175.817 507.243 177.756 502.08 177.809C499.017 177.84 496.127 177.11 493.078 177.141C491.439 177.158 488.918 179.17 487.214 179.762C484.04 180.865 480.534 179.602 477.325 180.716C474.119 181.83 472.256 187.461 471.837 189.838C471.294 192.926 472.351 198.781 472.471 200.352Z" fill="#a23918" fill-rule="evenodd" opacity="1" stroke="none"/>
</g>
<path d="M418.665 58.8149C421.611 67.5328 418.148 70.6895 424.094 80.8658C429.606 90.2997 459.981 108.866 445.877 116.367C437.476 120.834 422.803 109.395 418.124 109.689C413.592 109.973 405.444 120.168 396.852 122.092C392.931 122.97 382.653 120.749 376.97 111.42C371.287 102.09 380.117 105.408 374.361 87.258C372.537 81.5072 360.288 74.2427 363.894 65.2058C367.501 56.1688 360.889 50.2689 367.413 44.2767C374.992 37.3161 385.472 39.5678 389.633 40.02C392.83 40.3674 397.648 45.4887 401.338 46.931C416.373 52.8073 416.239 51.634 418.665 58.8149Z" fill="#bc452a" fill-rule="evenodd" opacity="1" stroke="none"/>
<path d="M950 10C930 10 933.154 16.3059 926.525 17.9112C917.149 20.1813 917.633 17.9838 912.303 18.2289C908.99 18.3812 907.103 21.6561 903.329 21.1476C899.58 20.6425 895.977 17.1963 892.215 17.3692C889.088 17.513 886.469 19.528 883.185 19.0856C876.776 18.2221 871.116 13.8521 864.468 14.5002C859.143 15.0193 852.346 18.4929 847.213 17.6068C841.876 16.6855 836.186 14.7221 830.748 14.8456C825.815 14.9575 821.857 20.3547 816.669 20.987C811.639 21.5999 803.693 20.0235 799.574 21.2909C795.016 22.6934 792.215 26.7241 787.166 27.1145C783.094 27.4294 776.416 26.5789 772.667 28.3112C768.627 30.1777 767.483 35.2607 763.037 36.8987C756.724 39.2248 748.436 35.1693 741.81 36.4288C735.256 37.6745 729.101 40.9238 722.46 42.186C715.409 43.5263 707.913 38.887 700.78 40.2429C690.833 42.1336 682.964 45.7723 672.632 44.3804C666.629 43.5716 661.098 40.4369 654.918 39.6043C647.953 38.666 638.809 40.9406 632.298 38.1863C625.122 35.1511 618.744 29.5213 611.098 27.8353C601.981 25.8247 589.486 28.8129 580.419 24.628C573.058 21.2307 569.962 10.218 550 10L550 0L950 0L950 10" fill="#ffb3a6" fill-rule="evenodd" opacity="1" stroke="none"/>
<path d="M866.713 53.419C861.907 64.1972 850.24 76.3259 848.786 87.8084C847.759 95.9248 859.119 103.563 864.19 107.208C875.342 115.225 869.727 129.494 888.042 130.399C891.689 130.58 895.166 131.088 898.892 129.335C908.067 125.018 919.555 117.337 926.423 109.37C929.519 105.778 929.587 102.801 931.317 98.9208C936.38 87.5649 944.322 75.8436 938.487 64.8573C934.486 57.3228 925.922 54.3169 919.748 49.2374C916.085 46.2239 913.23 42.244 909.583 39.2442C907.623 37.6314 903.035 38.1266 900.541 37.3106C895.897 35.7905 892.733 30.396 888.038 28.8598C883.347 27.3244 876.672 33.8967 874.292 37.0382C871.199 41.1197 867.816 50.9456 866.713 53.419Z" fill="#a23918" fill-rule="evenodd" opacity="1" stroke="none"/>
<path d="M562.92 194.825C562.92 194.825 570.055 184.712 576.705 180.088C584.777 174.474 588.943 178.29 597.678 168.497C605.776 159.42 626.994 134.569 636.124 147.281C640.008 152.689 635.407 162.461 636.99 168.442C638.523 174.236 642.667 176.812 643.266 183.762C643.719 189.018 636.383 206.468 634.951 209.075C632.655 213.257 631.509 220.774 614.599 231.977C609.241 235.527 596.691 247.291 590.764 245.465C578.632 241.729 570.56 247.847 565.984 229.373C564.99 225.358 558.357 211.757 558.763 206.679C559.453 198.053 562.92 194.825 562.92 194.825Z" fill="#a23918" fill-rule="evenodd" opacity="1" stroke="none"/>
<path d="M550 280C570 280 581.094 280.065 590.738 278.94C602.346 277.586 616.133 273.731 627.68 273.942C641.581 274.195 659.528 280.952 672.725 285.62C690.353 291.855 711.705 285.928 729.38 283.257C774.448 276.446 823.652 262.256 868.899 263.08C888.291 263.434 920 280 950 280L950 280L950 260C920 260 827.304 238.502 814.103 235.845C771.005 227.17 720.573 243.854 679.5 255.002C655.361 261.553 626.885 255.916 602.426 262.554C590.845 265.697 580 260 550 260L550 260L550 280" fill="#b34829" fill-rule="evenodd" opacity="1" stroke="none"/>
<path d="M767.43 137.279C755.235 138.077 743.968 144.451 739.234 145.141C719.868 147.965 662.272 142.994 677.109 174.524C679.939 180.54 692.906 183.475 698.032 188.271C701.698 191.699 704.378 196.182 708.801 198.985C720.008 206.085 736.733 206.019 749.741 209.688C760.844 212.821 770.154 219.476 782.168 220.18C808.06 221.698 832.343 206.952 836.086 184.685C839.704 163.157 805.996 149.607 788.014 141.952C782.54 139.621 779.624 136.483 767.43 137.279Z" fill="#bc452a" fill-rule="evenodd" opacity="1" stroke="none"/>
<path d="M581.361 103.424C584.477 108.45 585.19 118.369 590.146 121.227C593.649 123.247 602.449 116.753 606.492 113.892C615.382 107.601 619.841 113.746 628.459 101.42C630.175 98.965 631.975 96.6796 632.782 93.8566C634.77 86.9061 636.148 77.8321 635.325 71.8593C634.953 69.166 633.53 68.6352 632.408 66.826C629.124 61.5304 626.947 54.2155 618.98 56.4021C613.516 57.9017 608.227 63.2448 602.992 66.6238C599.885 68.6285 596.669 69.9256 593.576 71.9211C591.914 72.994 590.108 76.1995 588.596 77.7648C585.781 80.681 581.735 81.9585 578.89 84.9056C576.047 87.8511 576.276 93.4662 576.747 95.5983C577.359 98.3685 580.645 102.271 581.361 103.424Z" fill="#bc452a" fill-rule="evenodd" opacity="1" stroke="none"/>
<g opacity="1">
<path d="M679.323 67.3619C675.625 73.8134 666.647 81.0734 665.528 87.9464C664.738 92.8044 673.479 97.3767 677.38 99.5587C685.962 104.357 681.641 112.898 695.735 113.44C698.541 113.548 701.217 113.852 704.084 112.803C711.143 110.219 719.984 105.621 725.268 100.852C727.651 98.7025 727.703 96.9204 729.035 94.598C732.931 87.8007 739.041 80.7846 734.551 74.2085C731.472 69.6986 724.883 67.8994 720.132 64.8589C717.313 63.055 715.116 60.6728 712.311 58.8772C710.802 57.9118 707.271 58.2082 705.352 57.7199C701.778 56.81 699.344 53.581 695.732 52.6615C692.122 51.7424 686.986 55.6764 685.154 57.5567C682.774 59.9999 680.171 65.8814 679.323 67.3619Z" fill="#c54416" fill-rule="evenodd" opacity="1" stroke="none"/>
<path d="M683.402 72.0006C680.613 76.8673 673.84 82.3437 672.997 87.5283C672.4 91.1929 678.994 94.6419 681.937 96.2879C688.411 99.9078 685.152 106.35 695.783 106.759C697.9 106.841 699.917 107.07 702.081 106.279C707.406 104.329 714.075 100.861 718.06 97.2641C719.857 95.6421 719.897 94.2978 720.901 92.5459C723.84 87.4184 728.45 82.1259 725.063 77.1653C722.74 73.7632 717.77 72.406 714.186 70.1126C712.059 68.7519 710.402 66.9548 708.286 65.6003C707.148 64.8721 704.485 65.0957 703.037 64.7273C700.341 64.0409 698.505 61.6051 695.78 60.9115C693.057 60.2182 689.182 63.1858 687.8 64.6042C686.005 66.4472 684.042 70.8838 683.402 72.0006Z" fill="#a23918" fill-rule="evenodd" opacity="1" stroke="none"/>
</g>
<g opacity="1">
<path d="M865.21 198.336C865.902 207.414 861.847 220.854 865.416 228.637C867.939 234.137 879.833 232.964 885.239 232.584C897.128 231.749 898.622 243.382 913.137 234.5C916.027 232.732 918.921 231.252 921.082 228.258C926.404 220.887 932.139 210.263 934.187 201.846C935.111 198.05 933.947 196.191 933.698 192.924C932.968 183.359 934.312 172.088 925.317 168.365C919.148 165.811 911.306 168.382 904.462 168.451C900.402 168.493 896.57 167.526 892.528 167.567C890.355 167.589 887.014 170.256 884.755 171.041C880.546 172.503 875.898 170.829 871.645 172.306C867.395 173.783 864.925 181.247 864.37 184.398C863.649 188.491 865.051 196.253 865.21 198.336Z" fill="#c54416" fill-rule="evenodd" opacity="1" stroke="none"/>
<path d="M872.471 200.352C872.993 207.2 869.934 217.338 872.627 223.209C874.529 227.358 883.502 226.473 887.58 226.186C896.548 225.556 897.675 234.331 908.624 227.632C910.805 226.298 912.987 225.181 914.618 222.923C918.632 217.363 922.958 209.349 924.503 202.999C925.2 200.136 924.322 198.734 924.134 196.269C923.584 189.054 924.597 180.552 917.812 177.743C913.159 175.817 907.243 177.756 902.08 177.809C899.017 177.84 896.127 177.11 893.078 177.141C891.439 177.158 888.918 179.17 887.214 179.762C884.04 180.865 880.534 179.602 877.325 180.716C874.119 181.83 872.256 187.461 871.837 189.838C871.294 192.926 872.351 198.781 872.471 200.352Z" fill="#a23918" fill-rule="evenodd" opacity="1" stroke="none"/>
</g>
<path d="M818.665 58.8149C821.611 67.5328 818.148 70.6895 824.094 80.8658C829.606 90.2997 859.981 108.866 845.877 116.367C837.476 120.834 822.803 109.395 818.124 109.689C813.592 109.973 805.444 120.168 796.852 122.092C792.931 122.97 782.653 120.749 776.97 111.42C771.287 102.09 780.117 105.408 774.361 87.258C772.537 81.5072 760.288 74.2427 763.894 65.2058C767.501 56.1688 760.889 50.2689 767.413 44.2767C774.992 37.3161 785.472 39.5678 789.633 40.02C792.83 40.3674 797.648 45.4887 801.338 46.931C816.373 52.8073 816.239 51.634 818.665 58.8149Z" fill="#bc452a" fill-rule="evenodd" opacity="1" stroke="none"/>
<path d="M150 10C130 10 133.154 16.3059 126.525 17.9112C117.149 20.1813 117.633 17.9838 112.303 18.2289C108.99 18.3812 107.103 21.6561 103.329 21.1476C99.58 20.6425 95.977 17.1963 92.215 17.3692C89.088 17.513 86.469 19.528 83.185 19.0856C76.776 18.2221 71.116 13.8521 64.468 14.5002C59.143 15.0193 52.346 18.4929 47.213 17.6068C41.876 16.6855 36.186 14.7221 30.748 14.8456C25.815 14.9575 21.857 20.3547 16.669 20.987C11.639 21.5999 3.69299 20.0235-0.425995 21.2909C-4.98401 22.6934-7.785 26.7241-12.834 27.1145C-16.906 27.4294-23.584 26.5789-27.333 28.3112C-31.373 30.1777-32.517 35.2607-36.963 36.8987C-43.276 39.2248-51.564 35.1693-58.19 36.4288C-64.744 37.6745-70.899 40.9238-77.54 42.186C-84.591 43.5263-92.087 38.887-99.22 40.2429C-109.167 42.1336-117.036 45.7723-127.368 44.3804C-133.371 43.5716-138.902 40.4369-145.082 39.6043C-152.047 38.666-161.191 40.9406-167.702 38.1863C-174.878 35.1511-181.256 29.5213-188.902 27.8353C-198.019 25.8247-210.514 28.8129-219.581 24.628C-226.942 21.2307-230.038 10.218-250 10L-250 1.06581e-14L150 1.06581e-14L150 10" fill="#ffb3a6" fill-rule="evenodd" opacity="1" stroke="none"/>
<path d="M66.7128 53.419C61.9068 64.1972 50.2399 76.3259 48.7858 87.8084C47.7589 95.9248 59.1188 103.563 64.1899 107.208C75.3418 115.225 69.7269 129.494 88.0419 130.399C91.6889 130.58 95.1658 131.088 98.8919 129.335C108.067 125.018 119.555 117.337 126.423 109.37C129.519 105.778 129.587 102.801 131.317 98.9208C136.38 87.5649 144.322 75.8436 138.487 64.8573C134.486 57.3228 125.922 54.3169 119.748 49.2374C116.085 46.2239 113.23 42.244 109.583 39.2442C107.623 37.6314 103.035 38.1266 100.541 37.3106C95.8969 35.7905 92.7329 30.396 88.0379 28.8598C83.3468 27.3244 76.6719 33.8967 74.2919 37.0382C71.1989 41.1197 67.8158 50.9456 66.7128 53.419Z" fill="#a23918" fill-rule="evenodd" opacity="1" stroke="none"/>
<path d="M-237.08 194.825C-237.08 194.825-229.945 184.712-223.295 180.088C-215.223 174.474-211.057 178.29-202.322 168.497C-194.224 159.42-173.006 134.569-163.876 147.281C-159.992 152.689-164.593 162.461-163.01 168.442C-161.477 174.236-157.333 176.812-156.734 183.762C-156.281 189.018-163.617 206.468-165.049 209.075C-167.345 213.257-168.491 220.774-185.401 231.977C-190.759 235.527-203.309 247.291-209.236 245.465C-221.368 241.729-229.44 247.847-234.016 229.373C-235.01 225.358-241.643 211.757-241.237 206.679C-240.547 198.053-237.08 194.825-237.08 194.825Z" fill="#a23918" fill-rule="evenodd" opacity="1" stroke="none"/>
<path d="M-250 280C-230 280-218.906 280.065-209.262 278.94C-197.654 277.586-183.867 273.731-172.32 273.942C-158.419 274.195-140.472 280.952-127.275 285.62C-109.647 291.855-88.295 285.928-70.62 283.257C-25.552 276.446 23.652 262.256 68.899 263.08C88.291 263.434 120 280 150 280L150 280L150 260C120 260 27.304 238.502 14.103 235.845C-28.995 227.17-79.427 243.854-120.5 255.002C-144.639 261.553-173.115 255.916-197.574 262.554C-209.155 265.697-220 260-250 260L-250 260L-250 280" fill="#b34829" fill-rule="evenodd" opacity="1" stroke="none"/>
<path d="M-32.5701 137.279C-44.7651 138.077-56.0323 144.451-60.7655 145.141C-80.1318 147.965-137.728 142.994-122.891 174.524C-120.061 180.54-107.094 183.475-101.968 188.271C-98.3018 191.699-95.6225 196.182-91.1987 198.985C-79.9916 206.085-63.2671 206.019-50.2588 209.688C-39.1559 212.821-29.8459 219.476-17.8319 220.18C8.05967 221.698 32.3428 206.952 36.0865 184.685C39.7044 163.157 5.99615 149.607-11.9862 141.952C-17.4604 139.621-20.376 136.483-32.5701 137.279Z" fill="#bc452a" fill-rule="evenodd" opacity="1" stroke="none"/>
<path d="M-218.639 103.424C-215.523 108.45-214.81 118.369-209.854 121.227C-206.351 123.247-197.551 116.753-193.508 113.892C-184.618 107.601-180.159 113.746-171.541 101.42C-169.825 98.965-168.025 96.6796-167.218 93.8566C-165.23 86.9061-163.852 77.8321-164.675 71.8593C-165.047 69.166-166.47 68.6352-167.592 66.826C-170.876 61.5304-173.053 54.2155-181.02 56.4021C-186.484 57.9017-191.773 63.2448-197.008 66.6238C-200.115 68.6285-203.331 69.9256-206.424 71.9211C-208.086 72.994-209.892 76.1995-211.404 77.7648C-214.219 80.681-218.265 81.9585-221.11 84.9056C-223.953 87.8511-223.724 93.4662-223.253 95.5983C-222.641 98.3685-219.355 102.271-218.639 103.424Z" fill="#bc452a" fill-rule="evenodd" opacity="1" stroke="none"/>
<g opacity="1">
<path d="M-120.677 67.3619C-124.375 73.8134-133.353 81.0734-134.472 87.9464C-135.262 92.8044-126.521 97.3767-122.62 99.5587C-114.038 104.357-118.359 112.898-104.265 113.44C-101.459 113.548-98.7834 113.852-95.9157 112.803C-88.8567 110.219-80.0165 105.621-74.7318 100.852C-72.3495 98.7025-72.2974 96.9204-70.9655 94.598C-67.0694 87.8007-60.9589 80.7846-65.4491 74.2085C-68.5275 69.6986-75.1175 67.8994-79.8683 64.8589C-82.6872 63.055-84.8843 60.6728-87.6893 58.8772C-89.1984 57.9118-92.7285 58.2082-94.6476 57.7199C-98.2216 56.81-100.656 53.581-104.268 52.6615C-107.878 51.7424-113.014 55.6764-114.846 57.5567C-117.226 59.9999-119.829 65.8814-120.677 67.3619Z" fill="#c54416" fill-rule="evenodd" opacity="1" stroke="none"/>
<path d="M-116.598 72.0006C-119.387 76.8673-126.16 82.3437-127.003 87.5283C-127.6 91.1929-121.006 94.6419-118.063 96.2879C-111.589 99.9078-114.848 106.35-104.217 106.759C-102.1 106.841-100.083 107.07-97.9194 106.279C-92.5942 104.329-85.9255 100.861-81.9402 97.2641C-80.1427 95.6421-80.1034 94.2978-79.0992 92.5459C-76.1598 87.4184-71.5503 82.1259-74.9368 77.1653C-77.2601 73.7632-82.2298 72.406-85.8143 70.1126C-87.9407 68.7519-89.598 66.9548-91.7139 65.6003C-92.8524 64.8721-95.515 65.0957-96.9628 64.7273C-99.659 64.0409-101.495 61.6051-104.22 60.9115C-106.943 60.2182-110.818 63.1858-112.2 64.6042C-113.995 66.4472-115.958 70.8838-116.598 72.0006Z" fill="#a23918" fill-rule="evenodd" opacity="1" stroke="none"/>
</g>
<g opacity="1">
<path d="M65.21 198.336C65.902 207.414 61.847 220.854 65.416 228.637C67.939 234.137 79.833 232.964 85.239 232.584C97.128 231.749 98.622 243.382 113.137 234.5C116.027 232.732 118.921 231.252 121.082 228.258C126.404 220.887 132.139 210.263 134.187 201.846C135.111 198.05 133.947 196.191 133.698 192.924C132.968 183.359 134.312 172.088 125.317 168.365C119.148 165.811 111.306 168.382 104.462 168.451C100.402 168.493 96.57 167.526 92.528 167.567C90.355 167.589 87.014 170.256 84.755 171.041C80.546 172.503 75.898 170.829 71.645 172.306C67.395 173.783 64.925 181.247 64.37 184.398C63.649 188.491 65.051 196.253 65.21 198.336Z" fill="#c54416" fill-rule="evenodd" opacity="1" stroke="none"/>
<path d="M72.471 200.352C72.993 207.2 69.934 217.338 72.627 223.209C74.529 227.358 83.502 226.473 87.58 226.186C96.548 225.556 97.675 234.331 108.624 227.632C110.805 226.298 112.987 225.181 114.618 222.923C118.632 217.363 122.958 209.349 124.503 202.999C125.2 200.136 124.322 198.734 124.134 196.269C123.584 189.054 124.597 180.552 117.812 177.743C113.159 175.817 107.243 177.756 102.08 177.809C99.017 177.84 96.127 177.11 93.078 177.141C91.439 177.158 88.918 179.17 87.214 179.762C84.04 180.865 80.534 179.602 77.325 180.716C74.119 181.83 72.256 187.461 71.837 189.838C71.294 192.926 72.351 198.781 72.471 200.352Z" fill="#a23918" fill-rule="evenodd" opacity="1" stroke="none"/>
</g>
<path d="M18.6652 58.8149C21.6112 67.5328 18.1482 70.6895 24.0942 80.8658C29.6062 90.2997 59.9812 108.866 45.8772 116.367C37.4762 120.834 22.8032 109.395 18.1242 109.689C13.5922 109.973 5.44421 120.168-3.14777 122.092C-7.06879 122.97-17.3468 120.749-23.0298 111.42C-28.7128 102.09-19.8828 105.408-25.6388 87.258C-27.4628 81.5072-39.7118 74.2427-36.1058 65.2058C-32.4988 56.1688-39.1108 50.2689-32.5868 44.2767C-25.0078 37.3161-14.5278 39.5678-10.3668 40.02C-7.16977 40.3674-2.35178 45.4887 1.33823 46.931C16.3732 52.8073 16.2392 51.634 18.6652 58.8149Z" fill="#bc452a" fill-rule="evenodd" opacity="1" stroke="none"/>
</g>
<g id="shiny" vectornator:layerName="shiny">
<path d="M197.781 7.90625C250.871 50.7816 278.191 115.614 262.844 178.75C248.01 239.77 196.967 283.724 133.219 299C138.733 299.614 144.322 300 150 300C232.843 300 300 232.843 300 150C300 83.887 257.163 27.8776 197.781 7.90625Z" fill="#000000" fill-opacity="0.128233" fill-rule="evenodd" opacity="1" stroke="none"/>
<g opacity="1">
<path d="M134.937 52.5352L134.937 52.5352C141.722 78.4544 123.306 111.754 93.8033 126.911L93.8033 126.911C64.3003 142.069 34.8826 133.345 28.0972 107.426L28.0972 107.426C21.3117 81.5065 39.7279 48.2072 69.2309 33.0496L69.2309 33.0496C98.7339 17.892 128.152 26.616 134.937 52.5352Z" fill="#ffffff" fill-opacity="0.153282" fill-rule="evenodd" opacity="1" stroke="none"/>
<path d="M125.847 50.9089L125.847 50.9089C130.345 67.3212 118.452 88.3244 99.2828 97.8208L99.2828 97.8208C80.1138 107.317 60.928 101.711 56.4301 85.2986L56.4301 85.2986C51.9323 68.8863 63.8255 47.8831 82.9945 38.3866L82.9945 38.3866C102.163 28.8902 121.349 34.4966 125.847 50.9089Z" fill="#ffffff" fill-opacity="0.25" fill-rule="evenodd" opacity="1" stroke="none"/>
<path d="M116.081 53.8466L116.081 53.8466C118.564 64.0444 111.533 77.2223 100.378 83.2802L100.378 83.2802C89.2228 89.3382 78.167 85.9822 75.6842 75.7844L75.6842 75.7844C73.2014 65.5866 80.2317 52.4087 91.387 46.3507L91.387 46.3507C102.542 40.2927 113.598 43.6488 116.081 53.8466Z" fill="#ffffff" fill-opacity="0.452702" fill-rule="evenodd" opacity="1" stroke="none"/>
</g>
</g>
</svg>
